<svg xmlns="http://www.w3.org/2000/svg" version="1.1" x="0" y="0" viewBox="0" enable-background="new 0 0 132.8 132.5" xml:space="preserve"><circle fill="#D6504F" cx="66.4" cy="35.2" r="15.6"/><path fill="#CCCCCC" d="M77.8 64.1c15.9-6.3 23.7-24.3 17.4-40.2C88.9 7.9 70.9 0.1 55 6.4S31.2 30.7 37.6 46.7 61.9 70.4 77.8 64.1zM57.6 13c12.3-4.9 26.2 1.2 31.1 13.4s-1.2 26.2-13.4 31.1S49 56.4 44.1 44.1 45.3 17.9 57.6 13z"/><circle fill="#D6504F" cx="52.2" cy="58.9" r="6.9"/><circle fill="#D6504F" cx="98.4" cy="89.2" r="15.6"/><path fill="#CCCCCC" d="M98.4 58.2c-17.1 0-31 13.9-31 31s13.9 31 31 31 31-13.9 31-31S115.5 58.2 98.4 58.2zM98.4 113.2c-13.2 0-23.9-10.7-23.9-23.9s10.7-23.9 23.9-23.9 23.9 10.7 23.9 23.9S111.6 113.2 98.4 113.2z"/><circle fill="#D6504F" cx="69.9" cy="90.3" r="6.9"/><circle fill="#D6504F" cx="85.8" cy="66.8" r="6.9"/><circle fill="#D6504F" cx="35.4" cy="89.2" r="15.6"/><path fill="#CCCCCC" d="M23.4 60.7C7.6 67.3 0.2 85.5 6.8 101.2s24.8 23.2 40.6 16.6S70.6 93 64 77.3 39.2 54 23.4 60.7zM44.6 111.3c-12.2 5.1-26.2-0.6-31.4-12.8s0.6-26.2 12.8-31.4S52.3 67.8 57.5 80 56.8 106.2 44.6 111.3z"/><circle fill="#D6504F" cx="49.1" cy="65.3" r="6.9"/><circle fill="#D6504F" cx="62.9" cy="90.3" r="6.9"/><circle fill="#D6504F" cx="81.9" cy="59.3" r="6.9"/></svg>
