<svg xmlns="http://www.w3.org/2000/svg" xmlns:xlink="http://www.w3.org/1999/xlink" version="1.1" x="0px" y="0px" viewBox="0 0 382 382" enable-background="new 0 0 382 382" xml:space="preserve">
  <g id="Layer_1"/>
  <g id="Layer_2">
    <path fill="#FE2712" d="M345.5 202.1l-38.6 20 -115.7-31 -0.1 0.1 84.7 84.6 50.5 50.5c11.5-11.6 21.7-24.8 30.3-39.6 8.5-14.9 14.9-30.3 19.1-46.1L345.5 202.1z"/>
    <path fill="#FB9902" d="M356.5 95.6C348 80.8 337.7 67.5 326.2 56l-50.4 50.4c0 0 0 0 0 0.1l-84.6 84.6 115.6-31c0 0 0 0 0 0l68.8-18.4C371.4 125.9 365.1 110.4 356.5 95.6z"/>
    <polygon fill="#3B3F14" points="191.1,191.2 191.1,191.2 191.1,191.1  "/>
    <polygon fill="#3B3F14" points="191.1,191.1 190.3,191.3 190.1,192.2 191.1,191.2 191.1,191.1  "/>
    <polygon fill="#3B3F14" points="191.1,191.1 191.2,191.1 191.2,191.1  "/>
    <polygon fill="#3B3F14" points="191.1,191.1 191.1,191.1 191.1,191.2 191.2,191.1 191.1,191.1  "/>
    <polygon fill="#3B3F14" points="191,191.1 190.4,190.9 190.3,191.3 191.1,191.1  "/>
    <polygon fill="#3B3F14" points="190.5,190.5 190.4,190.9 191,191.1  "/>
    <polygon fill="#3B3F14" points="191.1,191.1 191.1,191.1 191.1,191.1  "/>
    <path fill="#FD5308" d="M375.7 141.6l-59.1 15.9c0 0 0 0 0 0l-125.4 33.6 0 0 115.6 31c0 0 0 0 0 0l68.9 18.3c4.3-15.7 6.5-32.3 6.5-49.4S379.9 157.4 375.7 141.6z"/>
    <polygon fill="#3B3F14" points="191.1,191.1 191.1,191.1 191.1,191.1  "/>
    <polygon fill="#3B3F14" points="191.1,191.1 191.1,191.1 191.1,191.1 191,191.1  "/>
    <polygon fill="#3B3F14" points="191.1,191.1 190.7,189.7 190.5,190.5 191,191.1  "/>
    <path fill="#0247FE" d="M75.5 222.1C75.5 222.1 75.5 222.1 75.5 222.1L6.6 240.5c4.2 15.8 10.6 31.3 19.1 46.1s18.8 28.1 30.3 39.6l50.5-50.4 83.6-83.6 0.2-0.9L75.5 222.1z"/>
    <path fill="#8601AF" d="M222.1 306.8C222.1 306.8 222.1 306.8 222.1 306.8l-31-115.6 -1.1 1.1 -30 114.6 -18.3 68.9c15.7 4.3 32.3 6.5 49.4 6.5s33.6-2.3 49.4-6.5L222.1 306.8z"/>
    <path fill="#3D01A4" d="M190.1 192.2l-83.6 83.6 -6.6 6.6L56 326.3c11.6 11.5 24.8 21.7 39.6 30.3 14.9 8.5 30.3 14.9 46.1 19.1l18.5-68.9c0 0-0.1 0-0.1 0L190.1 192.2z"/>
    <path fill="#A7194B" d="M275.8 275.8C275.8 275.8 275.8 275.8 275.8 275.8l-84.7-84.6 0 0 33.3 124.3c0 0 0 0 0 0l16.1 60.1c15.8-4.2 31.3-10.6 46.1-19.1 14.8-8.5 28.1-18.8 39.6-30.3L275.8 275.8z"/>
    <path fill="#0392CE" d="M75.5 160.1C75.5 160.1 75.5 160.1 75.5 160.1L6.6 141.8c-4.3 15.7-6.5 32.3-6.5 49.4 0 17.1 2.3 33.6 6.5 49.4l59.3-15.9c0 0 0 0 0 0l124.4-33.3 0.1-0.4L75.5 160.1z"/>
    <path fill="#FEFE33" d="M240.5 6.6c-15.7-4.3-32.3-6.5-49.4-6.5 -17.1 0-33.6 2.3-49.4 6.5l18.4 68.9c0 0 0 0 0 0l30.6 114.2 31-113.1c0.5 0.1 0.2-0.3 0.4-1.1L240.5 6.6z"/>
    <path fill="#D0EA2B" d="M190.7 189.7l-49-183.1c-15.8 4.2-31.3 10.5-46.1 19.1C80.8 34.2 67.6 44.5 56 56l50.4 50.5c0 0 0 0 0 0l84.1 84.1L190.7 189.7z"/>
    <path fill="#FABC02" d="M286.7 25.7c-14.9-8.5-30.3-14.9-46.1-19.1L225 64.8c-0.5-0.1 0.6-0.2 0.1-0.3l-34.3 125.2 0.4 1.4 0.1 0 0.1 0 84.6-84.6 7.6-7.6L326.3 56C314.7 44.5 301.5 34.3 286.7 25.7z"/>
    <path fill="#66B032" d="M190.5 190.5L56 56C44.5 67.6 34.3 80.8 25.7 95.6c-8.5 14.9-14.9 30.3-19.1 46.1 0 0 68.9 18.5 68.9 18.4l114.9 30.8L190.5 190.5z"/>
  </g>
</svg>
