<svg xmlns="http://www.w3.org/2000/svg" xmlns:xlink="http://www.w3.org/1999/xlink" version="1.1" x="0px" y="0px" viewBox="0 0 960 700" enable-background="new 0 0 960 700" xml:space="preserve" id="byrd-car">
  <g id="byrd-car">
    <g id="Layer_0_xA0_Image_1_">
      <image overflow="visible" enable-background="new    " width="960" height="700" id="Layer_0_xA0_Image" xlink:href="byrd.jpg" transform="matrix(1 0 0 1 -8192 -8192)"/>
    </g>
    <g id="Layer_4">
      <defs>
        <path id="SVGID_1_" d="M602.7 575.6c-0.7-2.7-2.1-4.6-3.9-6 -0.1-0.8-0.3-1.5-0.4-2.2 -0.9-4.7-2.1-9.1-4.1-13.5 -4.1-9.5-10-18.2-14.4-27.5 -0.3-0.7-0.8-1.3-1.2-1.9 -0.4-1.3-0.9-2.5-1.4-3.7 -1-0.9-1.9-1.8-2.8-2.9 -0.6-0.7-1.2-1.5-1.8-2.3 -2.8-3.9-5.1-8.3-8.2-11.9 -0.5-0.6-0.9-1.2-1.1-1.8 -3.1-2.5-6.2-4.9-8.3-8.3 -1.2-1.9-2.4-3.7-3.7-5.4 -0.8-0.2-1.7-0.6-2.4-1.5 -10.7-11.5-28.5-18-35.6-32.6l-0.1-0.1c-0.9-0.7-1.8-1.4-2.7-2.1 -0.6-0.5-1.3-1-1.9-1.5 -3.5-2.1-7-4.1-10.3-6.4 -6.6-4.7-13.1-9.7-19.8-14.3 -6-4.1-12.5-7.3-18.8-10.9 -0.8-0.5-1.6-0.9-2.4-1.3 -0.1-0.1-0.2-0.3-0.3-0.4 -1.2-0.4-2.3-0.9-3.3-1.5 -5.2-3-10.3-6.7-14.6-11.1 -7.8-3.3-14.4-9.2-21.7-13.4 -3.7-2.1-7-4.4-10.5-6.8 -4.1-2.9-9-4-13.4-6.2 -3.9-2-7.5-4.7-11.3-7 -3.6-1.6-7-3.4-10.4-5.4 -3.1-1.8-6.1-3.6-9.1-5.5 -0.8 0-1.6 0-2.3 0.1 -0.6-0.4-1.3-0.7-1.9-1 -5.3-2.4-10.3-5.5-15.7-7.2 -0.5-0.3-1-0.6-1.6-0.9 -8-4.6-17-6.1-25.6-9.3 -4.4-1.6-8.7-3.3-13.2-4.5 -4.6-1.3-9.4-1.7-14.1-2.8 -5.1-1.2-9.7-2.8-15.1-3.3 -4.9-0.4-9.7-0.8-14.6-1.6 -10-1.6-19.7-2.8-29.4-3.1 -1.1 1.2-2.8 1.9-4.8 1.4 -2.5-0.7-5-1.1-7.4-1.3 -5 0.2-10.1 0.7-15.3 1.4 -3 0.4-5.8 1.1-8.5 1.9 -0.7-0.1-1.5-0.1-2.2-0.1 -11.4 3.3-22.6 8-33.9 10.1l0 0c-5.2 2.6-10.2 5.5-14.9 8.9 -1.8 0.5-3.5 1.2-5.2 1.9 -0.1 0.1-0.2 0.3-0.4 0.4l0 0c-0.3 0.4-0.7 0.8-1 1 -4.7 4.8-9.8 9-15 13.3 -6.6 5.4-12.5 11.2-18.2 17.5 -5.9 6.6-11.1 12.5-14.5 20.7 -1.3 3.3-2.7 6.6-4.3 9.7 -0.3 1-0.5 2-0.7 3.1 -0.6 0.7-1.2 1.5-1.7 2.3 -3 11.9-7.3 23.5-9.5 35.6 -1.9 10.3-2.9 20.8-4.4 31.2 -0.3 7.4 0.4 14.9-0.1 22.3 -0.2 3.8 0.1 7.6 1 11.3 0.7 3 2.9 5.3 3 8.3 0.2 8.6 1.9 15.2 5.4 23 2.7 6.1 6.4 11.8 9.4 17.8 3.2 6.5 6.8 12.3 11.3 17.9 3.8 4.6 7.7 8.9 11.1 13.8 4.2 6.1 8.5 11.9 14.7 16.1 0.8 0.6 1.7 1 2.7 1.2 11.9 12.9 26.5 23 41.6 32 8.8 5.3 17.9 9.8 27.4 13.9 1 0.4 2 0.9 3 1.3 0.9 1.3 2.1 2.4 3.6 3.1 9.7 4.6 18.2 11 28.1 15.2 10.6 4.5 21.6 7.8 32.5 11.4 8.7 2.9 17.3 5.6 26.1 7.9 15.4-2.9 30.9 1.7 46.4 0.8 17.5-1 34.9-1.9 52.5-1.9 8.7 0 17.4 0.2 26 0.6 8.7 0.4 17.4-0.3 26.1 0 1 0 1.9 0.1 2.8 0.2 3.8-0.4 7.7-0.9 11.5-1.3 19.9-2.3 39.6-1.1 59.6-0.3 3.6 0.1 7.1 0.3 10.7 0.5 1.5-1 2.9-2.2 4.4-3.4 1.3-0.5 2.7-1.3 3.9-2.5 0.4 0 0.8-0.1 1.1-0.2 2.9-0.6 5.5-2 8.3-2.9 1-0.4 2-0.8 2.9-1.4 0.5 0.2 1.1 0.4 1.7 0.5 2.8-1.4 5.5-2.9 8.3-4.3 0.4-0.2 0.8-0.4 1.2-0.6 0.3-0.2 0.7-0.3 1-0.4 0.8-0.4 1.6-0.7 2.4-1.1 0.7-1.6 1-1.9 2.1-2.6 2.1-1.4 4.4-2.4 6.5-3.6 6.8-3.8 11.4-10.1 15.9-16.2 4-5.5 7.8-10.8 10.8-16.9 3.3-6.5 5.8-13.4 9-20 1.6-3.3 1.9-7.1 0.6-10.2 1.1-4.5 2-9 2.1-13.7C605.7 592.6 604.8 583.7 602.7 575.6z"/>
      </defs>
      <clipPath id="SVGID_2_">
        <use xlink:href="#SVGID_1_" overflow="visible"/>
      </clipPath>
      <g id="Layer_2" clip-path="url(#SVGID_2_)">
        <g id="wheel">
          <path fill="#FE2712" d="M644.1 570.3L573.4 607l-212-56.8 -0.2 0.2 155.2 155 92.5 92.5c21.1-21.3 39.8-45.4 55.5-72.6 15.6-27.3 27.3-55.5 35-84.5L644.1 570.3z"/>
          <path fill="#FB9902" d="M664.3 375.2c-15.6-27.1-34.5-51.5-55.5-72.6L516.4 395c0 0 0 0 0 0.2l-155 155 211.8-56.8 0 0 126.1-33.7C691.6 430.7 680 402.3 664.3 375.2z"/>
          <polygon fill="#3B3F14" points="361.2,550.4 361.2,550.4 361.2,550.2      "/>
          <polygon fill="#3B3F14" points="361.2,550.2 359.7,550.5 359.4,552.2 361.2,550.4      "/>
          <polygon fill="#3B3F14" points="361.2,550.2 361.4,550.2 361.4,550.2      "/>
          <polygon fill="#3B3F14" points="361.2,550.2 361.2,550.2 361.2,550.4 361.4,550.2      "/>
          <polygon fill="#3B3F14" points="361,550.2 359.9,549.8 359.7,550.5 361.2,550.2      "/>
          <polygon fill="#3B3F14" points="360.1,549.1 359.9,549.8 361,550.2      "/>
          <path fill="#3B3F14" d="M361.2 550.2L361.2 550.2 361.2 550.2z"/>
          <path fill="#FD5308" d="M699.5 459.5l-108.3 29.1 0 0 -229.8 61.6 0 0L573.2 607l0 0 126.3 33.5c7.9-28.8 11.9-59.2 11.9-90.5S707.2 488.4 699.5 459.5z"/>
          <path fill="#3B3F14" d="M361.2 550.2L361.2 550.2 361.2 550.2z"/>
          <polygon fill="#3B3F14" points="361.2,550.2 361.2,550.2 361.2,550.2 361,550.2      "/>
          <polygon fill="#3B3F14" points="361.2,550.2 360.5,547.6 360.1,549.1 361,550.2      "/>
          <path fill="#0247FE" d="M149.4 607L149.4 607 23.1 640.7c7.7 29 19.4 57.4 35 84.5s34.5 51.5 55.5 72.6l92.5-92.4 153.2-153.2 0.4-1.6L149.4 607z"/>
          <path fill="#8601AF" d="M418 762.2L418 762.2l-56.8-211.8 -2 2 -55 210 -33.5 126.3c28.8 7.9 59.2 11.9 90.5 11.9s61.6-4.2 90.5-11.9L418 762.2z"/>
          <path fill="#3D01A4" d="M359.4 552.2L206.2 705.4l-12.1 12.1 -80.4 80.4c21.3 21.1 45.4 39.8 72.6 55.5 27.3 15.6 55.5 27.3 84.5 35l33.9-126.3h-0.2L359.4 552.2z"/>
          <path fill="#A7194B" d="M516.4 705.4L516.4 705.4l-155.2-155 0 0 61 227.8 0 0 29.5 110.1c29-7.7 57.4-19.4 84.5-35 27.1-15.6 51.5-34.5 72.6-55.5L516.4 705.4z"/>
          <path fill="#0392CE" d="M149.4 493.4L149.4 493.4 23.1 459.8c-7.9 28.8-11.9 59.2-11.9 90.5s4.2 61.6 11.9 90.5l108.7-29.1 0 0 228-61 0.2-0.7L149.4 493.4z"/>
          <path fill="#FEFE33" d="M451.7 212.1c-28.8-7.9-59.2-11.9-90.5-11.9s-61.6 4.2-90.5 11.9l33.7 126.3 0 0 56.1 209.3 56.8-207.3c0.9 0.2 0.4-0.5 0.7-2L451.7 212.1z"/>
          <path fill="#D0EA2B" d="M360.5 547.6l-89.8-335.5c-29 7.7-57.4 19.2-84.5 35 -27.1 15.6-51.3 34.5-72.6 55.5l92.4 92.5 0 0 154.1 154.1L360.5 547.6z"/>
          <path fill="#FABC02" d="M536.4 247.1c-27.3-15.6-55.5-27.3-84.5-35l-28.6 106.6c-0.9-0.2 1.1-0.4 0.2-0.5l-62.9 229.4 0.7 2.6h0.2 0.2l155-155 13.9-13.9 78.2-78.6C587.7 281.5 563.5 262.9 536.4 247.1z"/>
          <path fill="#66B032" d="M360.1 549.1L113.6 302.6c-21.1 21.3-39.8 45.4-55.5 72.6 -15.6 27.3-27.3 55.5-35 84.5 0 0 126.3 33.9 126.3 33.7l210.5 56.4L360.1 549.1z"/>
        </g>
      </g>
    </g>
    <circle fill="none" stroke="#FFFFFF" stroke-width="8" stroke-miterlimit="10" cx="110" cy="526" r="22"/>
    <circle fill="none" stroke="#FFFFFF" stroke-width="8" stroke-miterlimit="10" cx="537.6" cy="553.5" r="22"/>
    <circle fill="none" stroke="#FFFFFF" stroke-width="8" stroke-miterlimit="10" cx="426.2" cy="657.1" r="22"/>
    <circle fill="none" stroke="#FFFFFF" stroke-width="8" stroke-miterlimit="10" cx="433.6" cy="434.6" r="22"/>
  </g>
  <g id="scheme1">
    <rect x="639.5" y="339" fill="#0392CE" stroke="#FFFFFF" stroke-width="8" stroke-miterlimit="10" width="52" height="52"/>
    <rect x="722.5" y="339" fill="#036A8E" stroke="#FFFFFF" stroke-width="8" stroke-miterlimit="10" width="52" height="52"/>
    <rect x="805.5" y="339" fill="#035572" stroke="#FFFFFF" stroke-width="8" stroke-miterlimit="10" width="52" height="52"/>
    <rect x="884.5" y="339" fill="#012B3A" stroke="#FFFFFF" stroke-width="8" stroke-miterlimit="10" width="52" height="52"/>
  </g>
  <g id="scheme2">
    <rect x="639.5" y="425" fill="#0392CE" stroke="#FFFFFF" stroke-width="8" stroke-miterlimit="10" width="52" height="52"/>
    <rect x="722.5" y="425" fill="#FD5308" stroke="#FDFFFE" stroke-width="8" stroke-miterlimit="10" width="52" height="52"/>
    <rect x="805.5" y="425" fill="#FABC02" stroke="#FFFFFF" stroke-width="8" stroke-miterlimit="10" width="52" height="52"/>
    <rect x="884.5" y="425" fill="#A7194B" stroke="#FDFFFE" stroke-width="8" stroke-miterlimit="10" width="52" height="52"/>
  </g>
</svg>
