<svg xmlns="http://www.w3.org/2000/svg" xmlns:xlink="http://www.w3.org/1999/xlink" version="1.1" x="0px" y="0px" viewBox="0 0 564.1 83.8" enable-background="new 0 0 564.1 83.8" xml:space="preserve" id="jump-monk">
    <g class="staff">
        <line fill="none" stroke="#000000" stroke-width="0.4535" stroke-linejoin="bevel" stroke-miterlimit="10" x1="456.7" y1="38.6" x2="559" y2="38.6"/>
        <line fill="none" stroke="#000000" stroke-width="0.4535" stroke-linejoin="bevel" stroke-miterlimit="10" x1="456.7" y1="44.3" x2="559" y2="44.3"/>
        <line fill="none" stroke="#000000" stroke-width="0.4535" stroke-linejoin="bevel" stroke-miterlimit="10" x1="456.7" y1="49.9" x2="559" y2="49.9"/>
        <line fill="none" stroke="#000000" stroke-width="0.4535" stroke-linejoin="bevel" stroke-miterlimit="10" x1="456.7" y1="55.6" x2="559" y2="55.6"/>
        <line fill="none" stroke="#000000" stroke-width="0.4535" stroke-linejoin="bevel" stroke-miterlimit="10" x1="456.7" y1="61.3" x2="559" y2="61.3"/>
        <line fill="none" stroke="#000000" stroke-width="0.4535" stroke-linejoin="bevel" stroke-miterlimit="10" x1="330.2" y1="38.6" x2="456.7" y2="38.6"/>
        <line fill="none" stroke="#000000" stroke-width="0.4535" stroke-linejoin="bevel" stroke-miterlimit="10" x1="330.2" y1="44.3" x2="456.7" y2="44.3"/>
        <line fill="none" stroke="#000000" stroke-width="0.4535" stroke-linejoin="bevel" stroke-miterlimit="10" x1="330.2" y1="49.9" x2="456.7" y2="49.9"/>
        <line fill="none" stroke="#000000" stroke-width="0.4535" stroke-linejoin="bevel" stroke-miterlimit="10" x1="330.2" y1="55.6" x2="456.7" y2="55.6"/>
        <line fill="none" stroke="#000000" stroke-width="0.4535" stroke-linejoin="bevel" stroke-miterlimit="10" x1="330.2" y1="61.3" x2="456.7" y2="61.3"/>
        <line fill="none" stroke="#000000" stroke-width="0.4535" stroke-linejoin="bevel" stroke-miterlimit="10" x1="203.4" y1="38.6" x2="330.2" y2="38.6"/>
        <line fill="none" stroke="#000000" stroke-width="0.4535" stroke-linejoin="bevel" stroke-miterlimit="10" x1="203.4" y1="44.3" x2="330.2" y2="44.3"/>
        <line fill="none" stroke="#000000" stroke-width="0.4535" stroke-linejoin="bevel" stroke-miterlimit="10" x1="203.4" y1="49.9" x2="330.2" y2="49.9"/>
        <line fill="none" stroke="#000000" stroke-width="0.4535" stroke-linejoin="bevel" stroke-miterlimit="10" x1="203.4" y1="55.6" x2="330.2" y2="55.6"/>
        <line fill="none" stroke="#000000" stroke-width="0.4535" stroke-linejoin="bevel" stroke-miterlimit="10" x1="203.4" y1="61.3" x2="330.2" y2="61.3"/>
        <line fill="none" stroke="#000000" stroke-width="0.4535" stroke-linejoin="bevel" stroke-miterlimit="10" x1="4.9" y1="38.6" x2="203.4" y2="38.6"/>
        <line fill="none" stroke="#000000" stroke-width="0.4535" stroke-linejoin="bevel" stroke-miterlimit="10" x1="4.9" y1="44.3" x2="203.4" y2="44.3"/>
        <line fill="none" stroke="#000000" stroke-width="0.4535" stroke-linejoin="bevel" stroke-miterlimit="10" x1="4.9" y1="49.9" x2="203.4" y2="49.9"/>
        <line fill="none" stroke="#000000" stroke-width="0.4535" stroke-linejoin="bevel" stroke-miterlimit="10" x1="4.9" y1="55.6" x2="203.4" y2="55.6"/>
        <line fill="none" stroke="#000000" stroke-width="0.4535" stroke-linejoin="bevel" stroke-miterlimit="10" x1="4.9" y1="61.3" x2="203.4" y2="61.3"/>
    </g>
    <g class="melody fragment" data-fragment-index="1">
        <line fill="none" stroke="#73b3da" stroke-width="0.6803" stroke-linejoin="bevel" stroke-miterlimit="10" x1="135.8" y1="32.9" x2="144.5" y2="32.9"/>
        <line fill="none" stroke="#73b3da" stroke-width="0.6803" stroke-linejoin="bevel" stroke-miterlimit="10" x1="145.5" y1="32.9" x2="155.3" y2="32.9"/>
        <line fill="none" stroke="#73b3da" stroke-width="0.6803" stroke-linejoin="bevel" stroke-miterlimit="10" x1="89.9" y1="27.3" x2="100.7" y2="27.3"/>
        <line fill="none" stroke="#73b3da" stroke-width="0.6803" stroke-linejoin="bevel" stroke-miterlimit="10" x1="89.9" y1="32.9" x2="100.7" y2="32.9"/>
        <line fill="none" stroke="#73b3da" stroke-width="0.6803" stroke-linejoin="bevel" stroke-miterlimit="10" x1="109.8" y1="32.9" x2="120.6" y2="32.9"/>
        <line fill="none" stroke="#73b3da" stroke-width="0.6803" stroke-linejoin="bevel" stroke-miterlimit="10" x1="125" y1="32.9" x2="134.8" y2="32.9"/>
        <path fill="#73b3da" fill-role="evenodd" clip-rule="evenodd" d="M136.3 59.6c-0.1 0-0.2 0-0.3 0s-0.2 0-0.3 0 -0.2-0.1-0.3-0.1 -0.2-0.1-0.3-0.2 -0.2-0.2-0.2-0.3 0-0.2 0-0.2 0.1-0.2 0.1-0.3c0-0.1 0.1-0.2 0.1-0.2s0-0.1 0.1-0.1 0.1-0.1 0.1-0.2c0.1-0.1 0.1-0.1 0.2-0.1 0 0 0 0 0.1 0 0.1 0 0.1 0 0.2 0 0.1 0 0.2 0.1 0.3 0.1s0.2 0.1 0.3 0.1c0.1 0 0.1 0.1 0.2 0.1 0 0 0 0 0 0 0.1 0 0.2 0 0.3-0.1 0.1 0 0.3-0.1 0.4-0.1 0.1 0 0.2-0.1 0.3-0.1 0 0 0 0 0 0 0.1 0 0.2 0 0.3 0.1 0 0 0.1 0.1 0.1 0.2 0 0 0 0.1 0 0.2 0 0 0 0 0 0 0 0.1 0 0.2-0.1 0.3s-0.1 0.2-0.2 0.3 -0.1 0.2-0.2 0.3c-0.1 0.1-0.2 0.2-0.2 0.3 -0.1 0.1-0.1 0.2-0.1 0.3 0 0.2-0.1 0.3-0.1 0.4 -0.1 0.2-0.2 0.3-0.2 0.3 0 0 0 0 0 0 0.2 0.1 0.3 0.1 0.4 0.2 0.1 0.1 0.3 0.3 0.3 0.6 0 0.3 0.1 0.5 0.1 0.5 0 0.2 0 0.3 0 0.3 -0.1 0.4-0.2 0.7-0.3 1.1 -0.1 0.3-0.6 0.7-1.4 1.1 -0.1 0-0.2 0.1-0.3 0.1s-0.2 0.1-0.3 0.1c0 0 0 0 0 0 -0.1 0-0.1 0-0.2-0.1 -0.1-0.1-0.1-0.1-0.1-0.1s0 0 0-0.1c0-0.2 0.1-0.3 0.1-0.4s0.1-0.2 0.2-0.3 0.1-0.1 0.2-0.2 0.2-0.1 0.2-0.1 0.2-0.1 0.2-0.1c0 0 0.1-0.1 0.3-0.2 0.3-0.2 0.4-0.4 0.4-0.6 0-0.1 0-0.2-0.1-0.3 0-0.1-0.1-0.2-0.2-0.3 0 0-0.1-0.1-0.3-0.1 0 0 0 0-0.1 0 -0.1 0-0.1 0-0.3 0.1 -0.1 0.1-0.2 0.1-0.3 0.1 -0.3 0.1-0.4 0.2-0.5 0.2 0 0-0.1 0-0.1 0 -0.1 0-0.2-0.1-0.2-0.3 0 0 0-0.1 0-0.1 0-0.3 0.1-0.4 0.3-0.5 0.2-0.1 0.4-0.2 0.5-0.3 0.1-0.1 0.2-0.2 0.2-0.3 0.1-0.2 0.2-0.3 0.2-0.3C136.2 59.8 136.3 59.6 136.3 59.6z"/>
        <path fill="#73b3da" fill-role="evenodd" clip-rule="evenodd" d="M116.7 33.5c0.4 0 0.7 0.6 1.1 1.7 0.4 1.1 0.6 2.1 0.6 3.1 0 0.8-0.2 1.7-0.6 2.5 -0.4 0.8-0.9 1.6-1.5 2.3 -0.6 0.7-1.2 1.4-1.8 2s-1.1 1.4-1.5 2.3c-0.4 0.8-0.6 1.7-0.6 2.5h-0.4v-5.7h0.4c0.7-0.4 1.3-0.8 1.8-1.2 0.5-0.4 1.1-0.8 1.6-1.3 0.6-0.5 1-1.1 1.3-1.6 0.3-0.6 0.5-1.2 0.5-1.8 0-1.4-0.4-2.8-1.2-4.2 0-0.2 0-0.3 0.1-0.4C116.4 33.5 116.5 33.5 116.7 33.5z"/>
        <polygon fill="#73b3da" fill-role="evenodd" clip-rule="evenodd" points="155.9,57.5 188,63.9 188,66.6 155.9,60.2  "/>
        <rect x="126.7" y="51.7" fill="#73b3da" fill-role="evenodd" clip-rule="evenodd" width="20.2" height="2.7"/>
        <rect x="126.7" y="47.6" fill="#73b3da" fill-role="evenodd" clip-rule="evenodd" width="20.2" height="2.7"/>
        <path fill="#73b3da" fill-role="evenodd" clip-rule="evenodd" d="M78 45.3c0.4 0 0.7 0.1 1 0.4 0.2 0.2 0.3 0.5 0.4 0.8 0 0.3 0.1 0.5 0.2 0.8 0.1 0.2 0.3 0.3 0.5 0.3 0.2 0 0.4-0.2 0.7-0.6s0.5-0.7 0.6-0.9c0.1-0.1 0.2-0.2 0.3-0.2S82 46 82 46.1l-2.8 9.5c-0.2 0.1-0.4 0.2-0.6 0.2s-0.5-0.1-0.6-0.2l2.7-7.4c-0.9 0.3-1.7 0.5-2.4 0.5 -0.5 0-1-0.2-1.4-0.5 -0.4-0.3-0.6-0.8-0.6-1.3 0-0.5 0.2-0.8 0.5-1.2C77.1 45.4 77.5 45.3 78 45.3z"/>
        <line fill="none" stroke="#73b3da" stroke-width="0.737" stroke-linecap="round" stroke-linejoin="bevel" stroke-miterlimit="10" x1="146.5" y1="34" x2="146.5" y2="53"/>
        <line fill="none" stroke="#73b3da" stroke-width="0.737" stroke-linecap="round" stroke-linejoin="bevel" stroke-miterlimit="10" x1="156.2" y1="39.7" x2="156.2" y2="58.9"/>
        <line fill="none" stroke="#73b3da" stroke-width="0.737" stroke-linecap="round" stroke-linejoin="bevel" stroke-miterlimit="10" x1="171.4" y1="42.5" x2="171.4" y2="61.9"/>
        <line fill="none" stroke="#73b3da" stroke-width="0.737" stroke-linecap="round" stroke-linejoin="bevel" stroke-miterlimit="10" x1="187.6" y1="48.2" x2="187.6" y2="65.2"/>
        <line fill="none" stroke="#73b3da" stroke-width="0.737" stroke-linecap="round" stroke-linejoin="bevel" stroke-miterlimit="10" x1="136.8" y1="31.2" x2="136.8" y2="53"/>
        <line fill="none" stroke="#73b3da" stroke-width="0.737" stroke-linecap="round" stroke-linejoin="bevel" stroke-miterlimit="10" x1="127" y1="34" x2="127" y2="53"/>
        <line fill="none" stroke="#73b3da" stroke-width="0.737" stroke-linecap="round" stroke-linejoin="bevel" stroke-miterlimit="10" x1="92" y1="28.3" x2="92" y2="49.9"/>
        <line fill="none" stroke="#73b3da" stroke-width="0.737" stroke-linecap="round" stroke-linejoin="bevel" stroke-miterlimit="10" x1="111.8" y1="31.2" x2="111.8" y2="49.9"/>
        <path fill="#73b3da" fill-role="evenodd" clip-rule="evenodd" d="M160.9 35.5c0.7 0 1.3 0.2 1.8 0.6s0.7 0.9 0.7 1.5c0 1-0.5 2-1.6 2.9 -1.1 0.9-2.2 1.3-3.4 1.3 -0.7 0-1.3-0.2-1.8-0.6 -0.5-0.4-0.7-0.9-0.7-1.5 0-1 0.5-2 1.6-2.9C158.5 35.9 159.6 35.5 160.9 35.5z"/>
        <path fill="#73b3da" fill-role="evenodd" clip-rule="evenodd" d="M176.1 38.3c0.7 0 1.3 0.2 1.8 0.6 0.5 0.4 0.7 0.9 0.7 1.5 0 1-0.5 2-1.6 2.9 -1.1 0.9-2.2 1.3-3.4 1.3 -0.7 0-1.3-0.2-1.8-0.6 -0.5-0.4-0.7-0.9-0.7-1.5 0-1 0.5-2 1.6-2.9C173.7 38.8 174.8 38.3 176.1 38.3z"/>
        <path fill="#73b3da" fill-role="evenodd" clip-rule="evenodd" d="M192.3 44c0.7 0 1.3 0.2 1.8 0.6 0.5 0.4 0.7 0.9 0.7 1.5 0 1-0.5 2-1.6 2.9 -1.1 0.9-2.2 1.3-3.4 1.3 -0.7 0-1.3-0.2-1.8-0.6 -0.5-0.4-0.7-0.9-0.7-1.5 0-1 0.5-2 1.6-2.9C189.9 44.4 191 44 192.3 44z"/>
        <path fill="#73b3da" fill-role="evenodd" clip-rule="evenodd" d="M141.4 27c0.7 0 1.3 0.2 1.8 0.6 0.5 0.4 0.7 0.9 0.7 1.5 0 1-0.5 2-1.6 2.9 -1.1 0.9-2.2 1.3-3.4 1.3 -0.7 0-1.3-0.2-1.8-0.6 -0.5-0.4-0.7-0.9-0.7-1.5 0-1 0.5-2 1.6-2.9C139 27.4 140.2 27 141.4 27z"/>
        <path fill="#73b3da" fill-role="evenodd" clip-rule="evenodd" d="M151.1 29.8c0.7 0 1.3 0.2 1.8 0.6 0.5 0.4 0.7 0.9 0.7 1.5 0 1-0.5 2-1.6 2.9 -1.1 0.9-2.2 1.3-3.4 1.3 -0.7 0-1.3-0.2-1.8-0.6s-0.7-0.9-0.7-1.5c0-1 0.5-2 1.6-2.9C148.8 30.2 149.9 29.8 151.1 29.8z"/>
        <path fill="#73b3da" fill-role="evenodd" clip-rule="evenodd" d="M96.6 24.1c0.7 0 1.3 0.2 1.8 0.6 0.5 0.4 0.7 0.9 0.7 1.5 0 1-0.5 2-1.6 2.9 -1.1 0.9-2.2 1.3-3.4 1.3 -0.7 0-1.3-0.2-1.8-0.6 -0.5-0.4-0.7-0.9-0.7-1.5 0-1 0.5-2 1.6-2.9C94.2 24.6 95.4 24.1 96.6 24.1z"/>
        <path fill="#73b3da" fill-role="evenodd" clip-rule="evenodd" d="M116.5 27c0.7 0 1.3 0.2 1.8 0.6 0.5 0.4 0.7 0.9 0.7 1.5 0 1-0.5 2-1.6 2.9 -1.1 0.9-2.2 1.3-3.4 1.3 -0.7 0-1.3-0.2-1.8-0.6s-0.7-0.9-0.7-1.5c0-1 0.5-2 1.6-2.9C114.1 27.4 115.2 27 116.5 27z"/>
        <path fill="#73b3da" fill-role="evenodd" clip-rule="evenodd" d="M131.7 29.8c0.7 0 1.3 0.2 1.8 0.6 0.5 0.4 0.7 0.9 0.7 1.5 0 1-0.5 2-1.6 2.9 -1.1 0.9-2.2 1.3-3.4 1.3 -0.7 0-1.3-0.2-1.8-0.6 -0.5-0.4-0.7-0.9-0.7-1.5 0-1 0.5-2 1.6-2.9C129.3 30.2 130.5 29.8 131.7 29.8z"/>
        <path fill="#73b3da" fill-role="evenodd" clip-rule="evenodd" d="M181.2 50.2l-0.3-13.5c0.2-0.1 0.4-0.2 0.6-0.2 0.2 0 0.4 0.1 0.6 0.2l-0.2 7.8c0.6-0.5 1.3-0.8 2.1-0.8 0.6 0 1.1 0.2 1.4 0.7 0.4 0.5 0.6 1 0.6 1.6 0 0.4-0.1 0.8-0.4 1.2s-0.5 0.7-0.8 0.9c-0.3 0.2-0.6 0.5-1.1 0.9 -0.5 0.4-0.8 0.6-1.1 0.8 -0.1 0.1-0.2 0.2-0.3 0.3 -0.1 0.2-0.2 0.3-0.4 0.4 -0.1 0.1-0.2 0.1-0.4 0.1 -0.1 0-0.3-0.1-0.4-0.2S181.2 50.4 181.2 50.2zM182.1 46.2l0 1.5v0.2c0 0.6 0 1.1 0.1 1.5 0.4-0.4 0.8-0.7 1-0.9 0.2-0.2 0.5-0.6 0.7-1s0.4-0.8 0.4-1.2 -0.1-0.8-0.3-1.1c-0.2-0.3-0.4-0.4-0.7-0.4 -0.4 0-0.6 0.1-0.9 0.4C182.2 45.4 182.1 45.8 182.1 46.2z"/>
        <line fill="none" stroke="#73b3da" stroke-width="0.6803" stroke-linejoin="bevel" stroke-miterlimit="10" x1="211.6" y1="27.3" x2="221" y2="27.3"/>
        <line fill="none" stroke="#73b3da" stroke-width="0.6803" stroke-linejoin="bevel" stroke-miterlimit="10" x1="210.2" y1="32.9" x2="221" y2="32.9"/>
        <line fill="none" stroke="#73b3da" stroke-width="0.6803" stroke-linejoin="bevel" stroke-miterlimit="10" x1="224.8" y1="32.9" x2="235.7" y2="32.9"/>
        <line fill="none" stroke="#73b3da" stroke-width="0.6803" stroke-linejoin="bevel" stroke-miterlimit="10" x1="239.5" y1="32.9" x2="250.4" y2="32.9"/>
        <polygon fill="#73b3da" fill-role="evenodd" clip-rule="evenodd" points="211.9,46.4 256.6,55.4 256.6,58.1 211.9,49.2  "/>
        <polygon fill="#73b3da" fill-role="evenodd" clip-rule="evenodd" points="270.5,60.8 315.4,69.8 315.4,72.5 270.5,63.5  "/>
        <line fill="none" stroke="#73b3da" stroke-width="0.737" stroke-linecap="round" stroke-linejoin="bevel" stroke-miterlimit="10" x1="285.7" y1="48.2" x2="285.7" y2="65.2"/>
        <line fill="none" stroke="#73b3da" stroke-width="0.737" stroke-linecap="round" stroke-linejoin="bevel" stroke-miterlimit="10" x1="300.3" y1="51" x2="300.3" y2="68.1"/>
        <line fill="none" stroke="#73b3da" stroke-width="0.737" stroke-linecap="round" stroke-linejoin="bevel" stroke-miterlimit="10" x1="315" y1="53.8" x2="315" y2="71"/>
        <line fill="none" stroke="#73b3da" stroke-width="0.737" stroke-linecap="round" stroke-linejoin="bevel" stroke-miterlimit="10" x1="241.6" y1="34" x2="241.6" y2="53.7"/>
        <line fill="none" stroke="#73b3da" stroke-width="0.737" stroke-linecap="round" stroke-linejoin="bevel" stroke-miterlimit="10" x1="256.2" y1="39.7" x2="256.2" y2="56.7"/>
        <line fill="none" stroke="#73b3da" stroke-width="0.737" stroke-linecap="round" stroke-linejoin="bevel" stroke-miterlimit="10" x1="270.9" y1="42.5" x2="270.9" y2="62.2"/>
        <line fill="none" stroke="#73b3da" stroke-width="0.737" stroke-linecap="round" stroke-linejoin="bevel" stroke-miterlimit="10" x1="212.3" y1="28.3" x2="212.3" y2="47.9"/>
        <line fill="none" stroke="#73b3da" stroke-width="0.737" stroke-linecap="round" stroke-linejoin="bevel" stroke-miterlimit="10" x1="226.9" y1="31.2" x2="226.9" y2="50.8"/>
        <path fill="#73b3da" fill-role="evenodd" clip-rule="evenodd" d="M290.3 44c0.7 0 1.3 0.2 1.8 0.6s0.7 0.9 0.7 1.5c0 1-0.5 2-1.6 2.9 -1.1 0.9-2.2 1.3-3.4 1.3 -0.7 0-1.3-0.2-1.8-0.6s-0.7-0.9-0.7-1.5c0-1 0.5-2 1.6-2.9S289.1 44 290.3 44z"/>
        <path fill="#73b3da" fill-role="evenodd" clip-rule="evenodd" d="M304.9 46.8c0.7 0 1.3 0.2 1.8 0.6s0.7 0.9 0.7 1.5c0 1-0.5 2-1.6 2.9 -1.1 0.9-2.2 1.3-3.4 1.3 -0.7 0-1.3-0.2-1.8-0.6S300 51.6 300 51c0-1 0.5-2 1.6-2.9C302.6 47.3 303.7 46.8 304.9 46.8z"/>
        <path fill="#73b3da" fill-role="evenodd" clip-rule="evenodd" d="M319.6 49.6c0.7 0 1.3 0.2 1.8 0.6s0.7 0.9 0.7 1.5c0 1-0.5 2-1.6 2.9 -1.1 0.9-2.2 1.3-3.4 1.3 -0.7 0-1.3-0.2-1.8-0.6 -0.5-0.4-0.7-0.9-0.7-1.5 0-1 0.5-2 1.6-2.9C317.3 50.1 318.4 49.6 319.6 49.6z"/>
        <path fill="#73b3da" fill-role="evenodd" clip-rule="evenodd" d="M260.9 35.5c0.7 0 1.3 0.2 1.8 0.6s0.7 0.9 0.7 1.5c0 1-0.5 2-1.6 2.9 -1.1 0.9-2.2 1.3-3.4 1.3 -0.7 0-1.3-0.2-1.8-0.6 -0.5-0.4-0.7-0.9-0.7-1.5 0-1 0.5-2 1.6-2.9C258.5 35.9 259.6 35.5 260.9 35.5z"/>
        <path fill="#73b3da" fill-role="evenodd" clip-rule="evenodd" d="M275.5 38.3c0.7 0 1.3 0.2 1.8 0.6 0.5 0.4 0.7 0.9 0.7 1.5 0 1-0.5 2-1.6 2.9 -1.1 0.9-2.2 1.3-3.4 1.3 -0.7 0-1.3-0.2-1.8-0.6 -0.5-0.4-0.7-0.9-0.7-1.5 0-1 0.5-2 1.6-2.9C273.2 38.8 274.3 38.3 275.5 38.3z"/>
        <path fill="#73b3da" fill-role="evenodd" clip-rule="evenodd" d="M216.9 24.1c0.7 0 1.3 0.2 1.8 0.6 0.5 0.4 0.7 0.9 0.7 1.5 0 1-0.5 2-1.6 2.9 -1.1 0.9-2.2 1.3-3.4 1.3 -0.7 0-1.3-0.2-1.8-0.6s-0.7-0.9-0.7-1.5c0-1 0.5-2 1.6-2.9C214.5 24.6 215.7 24.1 216.9 24.1z"/>
        <path fill="#73b3da" fill-role="evenodd" clip-rule="evenodd" d="M231.5 27c0.7 0 1.3 0.2 1.8 0.6s0.7 0.9 0.7 1.5c0 1-0.5 2-1.6 2.9 -1.1 0.9-2.2 1.3-3.4 1.3 -0.7 0-1.3-0.2-1.8-0.6 -0.5-0.4-0.7-0.9-0.7-1.5 0-1 0.5-2 1.6-2.9C229.2 27.4 230.3 27 231.5 27z"/>
        <path fill="#73b3da" fill-role="evenodd" clip-rule="evenodd" d="M246.2 29.8c0.7 0 1.3 0.2 1.8 0.6s0.7 0.9 0.7 1.5c0 1-0.5 2-1.6 2.9 -1.1 0.9-2.2 1.3-3.4 1.3 -0.7 0-1.3-0.2-1.8-0.6s-0.7-0.9-0.7-1.5c0-1 0.5-2 1.6-2.9C243.9 30.2 245 29.8 246.2 29.8z"/>
        <path fill="#73b3da" fill-role="evenodd" clip-rule="evenodd" d="M283.2 49.3l0.1-4.7 -2.1 0.4 -0.1 4.7L283.2 49.3zM280.1 38.6c0.2-0.1 0.4-0.2 0.6-0.2 0.2 0 0.4 0.1 0.6 0.2l-0.1 4.1 2.4-0.4h0.1c0.3 0 0.4 0.1 0.4 0.4l0.2 12.9c-0.2 0.1-0.4 0.2-0.6 0.2s-0.4-0.1-0.6-0.2l0.1-4.1 -2.4 0.4h-0.1c-0.3 0-0.4-0.1-0.4-0.4L280.1 38.6z"/>
        <path fill="#73b3da" fill-role="evenodd" clip-rule="evenodd" d="M205.8 30.4l-0.3-13.5c0.2-0.1 0.4-0.2 0.6-0.2 0.2 0 0.4 0.1 0.6 0.2l-0.2 7.8c0.6-0.5 1.3-0.8 2.1-0.8 0.6 0 1.1 0.2 1.4 0.7 0.4 0.5 0.6 1 0.6 1.6 0 0.4-0.1 0.8-0.4 1.2s-0.5 0.7-0.8 0.9c-0.3 0.2-0.6 0.5-1.1 0.9 -0.5 0.4-0.8 0.6-1.1 0.8 -0.1 0.1-0.2 0.2-0.3 0.3 -0.1 0.2-0.2 0.3-0.4 0.4 -0.1 0.1-0.2 0.1-0.4 0.1 -0.1 0-0.3-0.1-0.4-0.2C205.8 30.7 205.8 30.5 205.8 30.4zM206.7 26.3l0 1.5v0.2c0 0.6 0 1.1 0.1 1.5 0.4-0.4 0.8-0.7 1-0.9 0.2-0.2 0.5-0.6 0.7-1s0.4-0.8 0.4-1.2 -0.1-0.8-0.3-1.1c-0.2-0.3-0.4-0.4-0.7-0.4 -0.4 0-0.6 0.1-0.9 0.4C206.9 25.6 206.7 25.9 206.7 26.3z"/>
        <line fill="none" stroke="#73b3da" stroke-width="0.6803" stroke-linejoin="bevel" stroke-miterlimit="10" x1="439.5" y1="66.9" x2="450.3" y2="66.9"/>
        <line fill="none" stroke="#73b3da" stroke-width="0.6803" stroke-linejoin="bevel" stroke-miterlimit="10" x1="424.8" y1="72.6" x2="435.7" y2="72.6"/>
        <line fill="none" stroke="#73b3da" stroke-width="0.6803" stroke-linejoin="bevel" stroke-miterlimit="10" x1="424.8" y1="66.9" x2="435.7" y2="66.9"/>
        <rect x="403.9" y="47.5" fill="#73b3da" fill-role="evenodd" clip-rule="evenodd" width="44.7" height="2.7"/>
        <polygon fill="#73b3da" fill-role="evenodd" clip-rule="evenodd" points="343.7,21.9 390,31.2 390,33.9 343.7,24.6  "/>
        <line fill="none" stroke="#73b3da" stroke-width="0.737" stroke-linecap="round" stroke-linejoin="bevel" stroke-miterlimit="10" x1="448.2" y1="48.9" x2="448.2" y2="68.7"/>
        <line fill="none" stroke="#73b3da" stroke-width="0.737" stroke-linecap="round" stroke-linejoin="bevel" stroke-miterlimit="10" x1="404.3" y1="48.9" x2="404.3" y2="60.2"/>
        <line fill="none" stroke="#73b3da" stroke-width="0.737" stroke-linecap="round" stroke-linejoin="bevel" stroke-miterlimit="10" x1="418.9" y1="48.9" x2="418.9" y2="63"/>
        <line fill="none" stroke="#73b3da" stroke-width="0.737" stroke-linecap="round" stroke-linejoin="bevel" stroke-miterlimit="10" x1="433.6" y1="48.9" x2="433.6" y2="71.5"/>
        <line fill="none" stroke="#73b3da" stroke-width="0.737" stroke-linecap="round" stroke-linejoin="bevel" stroke-miterlimit="10" x1="358.7" y1="26.3" x2="358.7" y2="46"/>
        <line fill="none" stroke="#73b3da" stroke-width="0.737" stroke-linecap="round" stroke-linejoin="bevel" stroke-miterlimit="10" x1="373.4" y1="29.2" x2="373.4" y2="51.7"/>
        <line fill="none" stroke="#73b3da" stroke-width="0.737" stroke-linecap="round" stroke-linejoin="bevel" stroke-miterlimit="10" x1="389.6" y1="32.5" x2="389.6" y2="57.4"/>
        <line fill="none" stroke="#73b3da" stroke-width="0.737" stroke-linecap="round" stroke-linejoin="bevel" stroke-miterlimit="10" x1="344.1" y1="23.4" x2="344.1" y2="40.4"/>
        <path fill="#73b3da" fill-role="evenodd" clip-rule="evenodd" d="M446.1 66.7c0.7 0 1.3 0.2 1.8 0.6 0.5 0.4 0.7 0.9 0.7 1.5 0 1-0.5 2-1.6 2.9 -1.1 0.9-2.2 1.3-3.4 1.3 -0.7 0-1.3-0.2-1.8-0.6s-0.7-0.9-0.7-1.5c0-1 0.5-2 1.6-2.9C443.8 67.1 444.9 66.7 446.1 66.7z"/>
        <path fill="#73b3da" fill-role="evenodd" clip-rule="evenodd" d="M371.3 49.6c0.7 0 1.3 0.2 1.8 0.6 0.5 0.4 0.7 0.9 0.7 1.5 0 1-0.5 2-1.6 2.9 -1.1 0.9-2.2 1.3-3.4 1.3 -0.7 0-1.3-0.2-1.8-0.6 -0.5-0.4-0.7-0.9-0.7-1.5 0-1 0.5-2 1.6-2.9C369 50.1 370.1 49.6 371.3 49.6z"/>
        <path fill="#73b3da" fill-role="evenodd" clip-rule="evenodd" d="M387.5 55.3c0.7 0 1.3 0.2 1.8 0.6 0.5 0.4 0.7 0.9 0.7 1.5 0 1-0.5 2-1.6 2.9 -1.1 0.9-2.2 1.3-3.4 1.3 -0.7 0-1.3-0.2-1.8-0.6 -0.5-0.4-0.7-0.9-0.7-1.5 0-1 0.5-2 1.6-2.9C385.1 55.8 386.3 55.3 387.5 55.3z"/>
        <path fill="#73b3da" fill-role="evenodd" clip-rule="evenodd" d="M402.2 58.2c0.7 0 1.3 0.2 1.8 0.6 0.5 0.4 0.7 0.9 0.7 1.5 0 1-0.5 2-1.6 2.9 -1.1 0.9-2.2 1.3-3.4 1.3 -0.7 0-1.3-0.2-1.8-0.6s-0.7-0.9-0.7-1.5c0-1 0.5-2 1.6-2.9S400.9 58.2 402.2 58.2z"/>
        <path fill="#73b3da" fill-role="evenodd" clip-rule="evenodd" d="M416.8 61c0.7 0 1.3 0.2 1.8 0.6 0.5 0.4 0.7 0.9 0.7 1.5 0 1-0.5 2-1.6 2.9 -1.1 0.9-2.2 1.3-3.4 1.3 -0.7 0-1.3-0.2-1.8-0.6s-0.7-0.9-0.7-1.5c0-1 0.5-2 1.6-2.9C414.5 61.4 415.6 61 416.8 61z"/>
        <path fill="#73b3da" fill-role="evenodd" clip-rule="evenodd" d="M431.5 69.5c0.7 0 1.3 0.2 1.8 0.6s0.7 0.9 0.7 1.5c0 1-0.5 2-1.6 2.9 -1.1 0.9-2.2 1.3-3.4 1.3 -0.7 0-1.3-0.2-1.8-0.6 -0.5-0.4-0.7-0.9-0.7-1.5 0-1 0.5-2 1.6-2.9C429.1 69.9 430.3 69.5 431.5 69.5z"/>
        <path fill="#73b3da" fill-role="evenodd" clip-rule="evenodd" d="M342 38.3c0.7 0 1.3 0.2 1.8 0.6 0.5 0.4 0.7 0.9 0.7 1.5 0 1-0.5 2-1.6 2.9 -1.1 0.9-2.2 1.3-3.4 1.3 -0.7 0-1.3-0.2-1.8-0.6 -0.5-0.4-0.7-0.9-0.7-1.5 0-1 0.5-2 1.6-2.9C339.6 38.8 340.8 38.3 342 38.3z"/>
        <path fill="#73b3da" fill-role="evenodd" clip-rule="evenodd" d="M356.6 44c0.7 0 1.3 0.2 1.8 0.6s0.7 0.9 0.7 1.5c0 1-0.5 2-1.6 2.9 -1.1 0.9-2.2 1.3-3.4 1.3 -0.7 0-1.3-0.2-1.8-0.6s-0.7-0.9-0.7-1.5c0-1 0.5-2 1.6-2.9C354.3 44.4 355.4 44 356.6 44z"/>
        <path fill="#73b3da" fill-role="evenodd" clip-rule="evenodd" d="M376.4 61.6l-0.3-13.5c0.2-0.1 0.4-0.2 0.6-0.2s0.4 0.1 0.6 0.2l-0.2 7.8c0.6-0.5 1.3-0.8 2.1-0.8 0.6 0 1.1 0.2 1.4 0.7 0.4 0.5 0.6 1 0.6 1.6 0 0.4-0.1 0.8-0.4 1.2 -0.2 0.4-0.5 0.7-0.8 0.9s-0.6 0.5-1.1 0.9c-0.5 0.4-0.8 0.6-1.1 0.8 -0.1 0.1-0.2 0.2-0.3 0.3 -0.1 0.2-0.2 0.3-0.4 0.4 -0.1 0.1-0.2 0.1-0.4 0.1 -0.1 0-0.3-0.1-0.4-0.2S376.4 61.7 376.4 61.6zM377.3 57.5l0 1.5v0.2c0 0.6 0 1.1 0.1 1.5 0.4-0.4 0.8-0.7 1-0.9 0.2-0.2 0.5-0.6 0.7-1 0.2-0.4 0.4-0.8 0.4-1.2s-0.1-0.8-0.3-1.1c-0.2-0.3-0.4-0.4-0.7-0.4 -0.4 0-0.6 0.1-0.9 0.4C377.5 56.8 377.4 57.1 377.3 57.5z"/>
        <line fill="none" stroke="#73b3da" stroke-width="0.6803" stroke-linejoin="bevel" stroke-miterlimit="10" x1="464.9" y1="66.9" x2="475.8" y2="66.9"/>
        <line fill="none" stroke="#73b3da" stroke-width="0.6803" stroke-linejoin="bevel" stroke-miterlimit="10" x1="482.6" y1="72.6" x2="492" y2="72.6"/>
        <line fill="none" stroke="#73b3da" stroke-width="0.6803" stroke-linejoin="bevel" stroke-miterlimit="10" x1="481.1" y1="66.9" x2="492" y2="66.9"/>
        <line fill="none" stroke="#73b3da" stroke-width="0.6803" stroke-linejoin="bevel" stroke-miterlimit="10" x1="543.3" y1="27.3" x2="554.2" y2="27.3"/>
        <line fill="none" stroke="#73b3da" stroke-width="0.6803" stroke-linejoin="bevel" stroke-miterlimit="10" x1="543.3" y1="32.9" x2="554.2" y2="32.9"/>
        <path fill="#73b3da" fill-role="evenodd" clip-rule="evenodd" d="M550.2 33.5c0.4 0 0.7 0.6 1.1 1.7 0.4 1.1 0.6 2.1 0.6 3.1 0 0.8-0.2 1.7-0.6 2.5 -0.4 0.8-0.9 1.6-1.5 2.3 -0.6 0.7-1.2 1.4-1.8 2 -0.6 0.7-1.1 1.4-1.5 2.3 -0.4 0.8-0.6 1.7-0.6 2.5h-0.4v-5.7h0.4c0.7-0.4 1.3-0.8 1.8-1.2 0.5-0.4 1.1-0.8 1.6-1.3s1-1.1 1.3-1.6c0.3-0.6 0.5-1.2 0.5-1.8 0-1.4-0.4-2.8-1.2-4.2 0-0.2 0-0.3 0.1-0.4C549.9 33.5 550 33.5 550.2 33.5z"/>
        <polygon fill="#73b3da" fill-role="evenodd" clip-rule="evenodd" points="473.4,47.4 490.3,50.8 490.3,53.5 473.4,50.2  "/>
        <path fill="#73b3da" fill-role="evenodd" clip-rule="evenodd" d="M513.8 48.2c0-0.3 0.1-0.6 0.4-0.9 0.3-0.3 0.6-0.6 1-0.8 0.3-0.2 0.7-0.6 1-1 0.3-0.4 0.4-0.9 0.4-1.4 0-0.6-0.2-1.1-0.6-1.6l-0.8-1c-0.1-0.1-0.1-0.1-0.1-0.2s0-0.2 0.1-0.2c0.1-0.1 0.2-0.1 0.3-0.1 0.1 0 0.2 0 0.2 0.1l3.4 4.1c0.1 0.2 0.2 0.4 0.2 0.6 0 0.3-0.1 0.6-0.4 0.9 -0.3 0.3-0.6 0.6-1 0.8 -0.3 0.2-0.7 0.6-1 1 -0.3 0.4-0.4 0.9-0.4 1.4 0 0.6 0.2 1.1 0.5 1.6l1.9 2.2c0.1 0.1 0.1 0.1 0.1 0.2 0 0.1 0 0.2-0.1 0.3 -0.1 0.1-0.2 0.1-0.3 0.1 0 0-0.2-0.1-0.4-0.3 -0.2-0.2-0.5-0.3-0.9-0.5s-0.8-0.2-1.2-0.2c-0.4 0-0.7 0.1-0.9 0.3 -0.2 0.2-0.3 0.6-0.3 1.2 0 0.9 0.2 1.6 0.6 2.1 0 0.1 0.1 0.1 0 0.2 0 0.1-0.1 0.1-0.2 0.1 -0.1 0-0.3-0.3-0.7-0.8s-0.7-1.2-1-1.9c-0.3-0.8-0.5-1.4-0.5-1.9 0-0.6 0.3-1 0.9-1 0.7 0 1.6 0.2 2.7 0.7l-3-3.6C513.9 48.5 513.8 48.3 513.8 48.2z"/>
        <path fill="#73b3da" fill-role="evenodd" clip-rule="evenodd" d="M537.6 45.3c0.4 0 0.7 0.1 1 0.4 0.2 0.2 0.3 0.5 0.4 0.8s0.1 0.5 0.2 0.8c0.1 0.2 0.3 0.3 0.5 0.3 0.2 0 0.4-0.2 0.7-0.6 0.3-0.4 0.5-0.7 0.6-0.9 0.1-0.1 0.2-0.2 0.3-0.2s0.3 0.1 0.3 0.2l-2.8 9.5c-0.2 0.1-0.4 0.2-0.6 0.2s-0.5-0.1-0.6-0.2l2.7-7.4c-0.9 0.3-1.7 0.5-2.4 0.5 -0.5 0-1-0.2-1.4-0.5 -0.4-0.3-0.6-0.8-0.6-1.3 0-0.5 0.2-0.8 0.5-1.2C536.8 45.4 537.2 45.3 537.6 45.3z"/>
        <path fill="#73b3da" fill-role="evenodd" clip-rule="evenodd" d="M494.7 48.2c0-0.3 0.1-0.6 0.4-0.9 0.3-0.3 0.6-0.6 1-0.8 0.3-0.2 0.7-0.6 1-1s0.4-0.9 0.4-1.4c0-0.6-0.2-1.1-0.6-1.6l-0.8-1c-0.1-0.1-0.1-0.1-0.1-0.2s0-0.2 0.1-0.2c0.1-0.1 0.2-0.1 0.3-0.1 0.1 0 0.2 0 0.2 0.1l3.4 4.1c0.1 0.2 0.2 0.4 0.2 0.6 0 0.3-0.1 0.6-0.4 0.9 -0.3 0.3-0.6 0.6-1 0.8 -0.3 0.2-0.7 0.6-1 1 -0.3 0.4-0.4 0.9-0.4 1.4 0 0.6 0.2 1.1 0.5 1.6l1.9 2.2c0.1 0.1 0.1 0.1 0.1 0.2 0 0.1 0 0.2-0.1 0.3 -0.1 0.1-0.2 0.1-0.3 0.1 0 0-0.2-0.1-0.4-0.3 -0.2-0.2-0.5-0.3-0.9-0.5 -0.4-0.2-0.8-0.2-1.2-0.2 -0.4 0-0.7 0.1-0.9 0.3 -0.2 0.2-0.3 0.6-0.3 1.2 0 0.9 0.2 1.6 0.6 2.1 0 0.1 0.1 0.1 0 0.2 0 0.1-0.1 0.1-0.2 0.1 -0.1 0-0.3-0.3-0.7-0.8s-0.7-1.2-1-1.9c-0.3-0.8-0.5-1.4-0.5-1.9 0-0.6 0.3-1 0.9-1 0.7 0 1.6 0.2 2.7 0.7l-3-3.6C494.7 48.5 494.7 48.3 494.7 48.2z"/>
        <line fill="none" stroke="#73b3da" stroke-width="0.737" stroke-linecap="round" stroke-linejoin="bevel" stroke-miterlimit="10" x1="473.7" y1="48.9" x2="473.7" y2="65.9"/>
        <line fill="none" stroke="#73b3da" stroke-width="0.737" stroke-linecap="round" stroke-linejoin="bevel" stroke-miterlimit="10" x1="489.9" y1="52.1" x2="489.9" y2="74.4"/>
        <line fill="none" stroke="#73b3da" stroke-width="0.737" stroke-linecap="round" stroke-linejoin="bevel" stroke-miterlimit="10" x1="545.4" y1="28.3" x2="545.4" y2="49.9"/>
        <path fill="#73b3da" fill-role="evenodd" clip-rule="evenodd" d="M471.6 63.8c0.7 0 1.3 0.2 1.8 0.6s0.7 0.9 0.7 1.5c0 1-0.5 2-1.6 2.9 -1.1 0.9-2.2 1.3-3.4 1.3 -0.7 0-1.3-0.2-1.8-0.6 -0.5-0.4-0.7-0.9-0.7-1.5 0-1 0.5-2 1.6-2.9C469.3 64.3 470.4 63.8 471.6 63.8z"/>
        <path fill="#73b3da" fill-role="evenodd" clip-rule="evenodd" d="M487.8 72.3c0.7 0 1.3 0.2 1.8 0.6 0.5 0.4 0.7 0.9 0.7 1.5 0 1-0.5 2-1.6 2.9 -1.1 0.9-2.2 1.3-3.4 1.3 -0.7 0-1.3-0.2-1.8-0.6 -0.5-0.4-0.7-0.9-0.7-1.5 0-1 0.5-2 1.6-2.9C485.5 72.8 486.6 72.3 487.8 72.3z"/>
        <path fill="#73b3da" fill-role="evenodd" clip-rule="evenodd" d="M550 24.1c0.7 0 1.3 0.2 1.8 0.6 0.5 0.4 0.7 0.9 0.7 1.5 0 1-0.5 2-1.6 2.9 -1.1 0.9-2.2 1.3-3.4 1.3 -0.7 0-1.3-0.2-1.8-0.6 -0.5-0.4-0.7-0.9-0.7-1.5 0-1 0.5-2 1.6-2.9C547.6 24.6 548.8 24.1 550 24.1z"/>
        <path fill="#73b3da" fill-role="evenodd" clip-rule="evenodd" d="M476.7 78.6l-0.3-13.5c0.2-0.1 0.4-0.2 0.6-0.2 0.2 0 0.4 0.1 0.6 0.2l-0.2 7.8c0.6-0.5 1.3-0.8 2.1-0.8 0.6 0 1.1 0.2 1.4 0.7 0.4 0.5 0.6 1 0.6 1.6 0 0.4-0.1 0.8-0.4 1.2 -0.2 0.4-0.5 0.7-0.8 0.9 -0.3 0.2-0.6 0.5-1.1 0.9 -0.5 0.4-0.8 0.6-1.1 0.8 -0.1 0.1-0.2 0.2-0.3 0.3 -0.1 0.2-0.2 0.3-0.4 0.4 -0.1 0.1-0.2 0.1-0.4 0.1 -0.1 0-0.3-0.1-0.4-0.2C476.8 78.9 476.7 78.7 476.7 78.6zM477.7 74.5l0 1.5v0.2c0 0.6 0 1.1 0.1 1.5 0.4-0.4 0.8-0.7 1-0.9 0.2-0.2 0.5-0.6 0.7-1 0.2-0.4 0.4-0.8 0.4-1.2s-0.1-0.8-0.3-1.1c-0.2-0.3-0.4-0.4-0.7-0.4 -0.4 0-0.6 0.1-0.9 0.4C477.8 73.8 477.7 74.1 477.7 74.5z"/>
    </g>
    <g class="key fragment" data-fragment-index="2">
        <path fill="#f5c45e" fill-role="evenodd" clip-rule="evenodd" d="M42.4 47.4l-0.3-13.5c0.2-0.1 0.4-0.2 0.6-0.2s0.4 0.1 0.6 0.2l-0.2 7.8c0.6-0.5 1.3-0.8 2.1-0.8 0.6 0 1.1 0.2 1.4 0.7 0.4 0.5 0.6 1 0.6 1.6 0 0.4-0.1 0.8-0.4 1.2s-0.5 0.7-0.8 0.9c-0.3 0.2-0.6 0.5-1.1 0.9s-0.8 0.6-1.1 0.8c-0.1 0.1-0.2 0.2-0.3 0.3 -0.1 0.2-0.2 0.3-0.4 0.4S43.1 48 42.9 48c-0.1 0-0.3-0.1-0.4-0.2S42.4 47.6 42.4 47.4zM43.4 43.3l0 1.5v0.2c0 0.6 0 1.1 0.1 1.5 0.4-0.4 0.8-0.7 1-0.9 0.2-0.2 0.5-0.6 0.7-1s0.4-0.8 0.4-1.2 -0.1-0.8-0.3-1.1c-0.2-0.3-0.4-0.4-0.7-0.4 -0.4 0-0.6 0.1-0.9 0.4C43.5 42.6 43.4 42.9 43.4 43.3z"/>
        <path fill="#f5c45e" fill-role="evenodd" clip-rule="evenodd" d="M36.8 55.9l-0.3-13.5c0.2-0.1 0.4-0.2 0.6-0.2 0.2 0 0.4 0.1 0.6 0.2l-0.2 7.8c0.6-0.5 1.3-0.8 2.1-0.8 0.6 0 1.1 0.2 1.4 0.7 0.4 0.5 0.6 1 0.6 1.6 0 0.4-0.1 0.8-0.4 1.2 -0.2 0.4-0.5 0.7-0.8 0.9 -0.3 0.2-0.6 0.5-1.1 0.9 -0.5 0.4-0.8 0.6-1.1 0.8 -0.1 0.1-0.2 0.2-0.3 0.3 -0.1 0.2-0.2 0.3-0.4 0.4 -0.1 0.1-0.2 0.1-0.4 0.1 -0.1 0-0.3-0.1-0.4-0.2C36.8 56.2 36.8 56.1 36.8 55.9zM37.7 51.8l0 1.5v0.2c0 0.6 0 1.1 0.1 1.5 0.4-0.4 0.8-0.7 1-0.9 0.2-0.2 0.5-0.6 0.7-1 0.2-0.4 0.4-0.8 0.4-1.2s-0.1-0.8-0.3-1.1c-0.2-0.3-0.4-0.4-0.7-0.4 -0.4 0-0.6 0.1-0.9 0.4S37.7 51.4 37.7 51.8z"/>
        <path fill="#f5c45e" fill-role="evenodd" clip-rule="evenodd" d="M31.1 44.6l-0.3-13.5c0.2-0.1 0.4-0.2 0.6-0.2 0.2 0 0.4 0.1 0.6 0.2l-0.2 7.8c0.6-0.5 1.3-0.8 2.1-0.8 0.6 0 1.1 0.2 1.4 0.7 0.4 0.5 0.6 1 0.6 1.6 0 0.4-0.1 0.8-0.4 1.2 -0.2 0.4-0.5 0.7-0.8 0.9 -0.3 0.2-0.6 0.5-1.1 0.9 -0.5 0.4-0.8 0.6-1.1 0.8 -0.1 0.1-0.2 0.2-0.3 0.3 -0.1 0.2-0.2 0.3-0.4 0.4 -0.1 0.1-0.2 0.1-0.4 0.1 -0.1 0-0.3-0.1-0.4-0.2S31.1 44.7 31.1 44.6zM32 40.5l0 1.5v0.2c0 0.6 0 1.1 0.1 1.5 0.4-0.4 0.8-0.7 1-0.9 0.2-0.2 0.5-0.6 0.7-1 0.2-0.4 0.4-0.8 0.4-1.2s-0.1-0.8-0.3-1.1c-0.2-0.3-0.4-0.4-0.7-0.4 -0.4 0-0.6 0.1-0.9 0.4C32.2 39.8 32.1 40.1 32 40.5z"/>
        <path fill="#f5c45e" fill-role="evenodd" clip-rule="evenodd" d="M25.4 53.1l-0.3-13.5c0.2-0.1 0.4-0.2 0.6-0.2 0.2 0 0.4 0.1 0.6 0.2l-0.2 7.8c0.6-0.5 1.3-0.8 2.1-0.8 0.6 0 1.1 0.2 1.4 0.7 0.4 0.5 0.6 1 0.6 1.6 0 0.4-0.1 0.8-0.4 1.2s-0.5 0.7-0.8 0.9c-0.3 0.2-0.6 0.5-1.1 0.9 -0.5 0.4-0.8 0.6-1.1 0.8 -0.1 0.1-0.2 0.2-0.3 0.3 -0.1 0.2-0.2 0.3-0.4 0.4s-0.2 0.1-0.4 0.1c-0.1 0-0.3-0.1-0.4-0.2C25.5 53.4 25.4 53.2 25.4 53.1zM26.4 49l0 1.5v0.2c0 0.6 0 1.1 0.1 1.5 0.4-0.4 0.8-0.7 1-0.9 0.2-0.2 0.5-0.6 0.7-1 0.2-0.4 0.4-0.8 0.4-1.2s-0.1-0.8-0.3-1.1c-0.2-0.3-0.4-0.4-0.7-0.4 -0.4 0-0.6 0.1-0.9 0.4C26.5 48.3 26.4 48.6 26.4 49z"/>
        <path fill="#f5c45e" fill-role="evenodd" clip-rule="evenodd" d="M16.2 30.6c-1.1 0.7-2 1.6-2.6 2.7 -0.6 1.1-0.9 2.4-0.9 3.7 0 1 0.4 2.6 1.1 4.9 1.1-1.4 1.9-2.7 2.5-4 0.6-1.3 0.9-2.6 0.9-4 0-0.7-0.1-1.3-0.2-1.7C16.9 31.8 16.6 31.2 16.2 30.6zM14.5 58.6c-0.1 0-0.3-0.1-0.7-0.3 -0.3-0.2-0.7-0.4-1.1-0.7 -0.4-0.3-0.7-0.8-1-1.4 -0.3-0.6-0.4-1.2-0.4-1.9 0-1.1 0.3-2 1-2.9 0.7-0.9 1.6-1.4 2.8-1.6 -0.4-1.2-0.8-2.6-1.3-4.2 -0.8 1-1.4 1.8-1.8 2.3 -0.4 0.6-0.9 1.3-1.4 2.2 -0.5 0.9-0.9 1.8-1.2 2.6 -0.2 0.8-0.3 1.7-0.3 2.6 0 1.4 0.7 2.7 2 3.7 1.3 1 2.7 1.6 4.3 1.6 0.6 0 1.1 0 1.6-0.1 -0.2-2.6-0.6-5.4-1.4-8.4 -0.9 0.1-1.7 0.4-2.2 0.9 -0.6 0.5-0.8 1.2-0.8 1.9 0 1.2 0.7 2.2 2 2.8 0.1 0.1 0.2 0.2 0.2 0.4s-0.1 0.2-0.2 0.3S14.7 58.6 14.5 58.6zM18.2 60.2c0.7-0.3 1.3-0.7 1.8-1.4 0.5-0.7 0.7-1.4 0.7-2.3 0-1-0.3-2-1-2.8 -0.7-0.8-1.6-1.4-2.7-1.5C17.6 55 18.1 57.7 18.2 60.2zM22.2 55.7c0 1.3-0.4 2.5-1.1 3.5 -0.8 1-1.7 1.7-2.8 2 0 0.3 0 0.7 0 1.3 0 0.8 0 1.7-0.1 2.7 -0.1 1.4-0.6 2.7-1.5 3.7 -0.8 1-1.9 1.6-3.2 1.6 -1.3 0-2.4-0.4-3.4-1.3 -0.9-0.9-1.4-1.9-1.4-3.2 0-0.6 0.3-1.2 0.8-1.7 0.5-0.5 1.1-0.7 1.8-0.7 0.6 0 1.1 0.2 1.5 0.7 0.4 0.5 0.6 1 0.6 1.7 0 0.6-0.2 1.1-0.6 1.5 -0.4 0.4-0.9 0.6-1.5 0.6 -0.2 0-0.5 0-0.7-0.1 0.3 0.5 0.7 0.8 1.3 1.1 0.5 0.3 1.1 0.4 1.7 0.4 1 0 1.9-0.4 2.5-1.3 0.7-0.9 1.1-1.9 1.2-3.1 0.1-1 0.1-1.8 0.1-2.6 0-0.5 0-0.8 0-1.1 -0.6 0.1-1.2 0.2-1.7 0.2 -2.2 0-4.1-0.8-5.6-2.4 -1.6-1.6-2.3-3.5-2.3-5.7 0-0.5 0.1-1 0.2-1.6 0.1-0.5 0.2-1 0.3-1.4 0.1-0.4 0.3-0.9 0.6-1.4 0.3-0.6 0.5-1 0.6-1.3 0.1-0.3 0.4-0.7 0.9-1.4 0.5-0.6 0.8-1 0.9-1.2 0.1-0.1 0.4-0.6 1-1.3 0.6-0.7 0.9-1.1 0.9-1.2 -0.5-1.7-0.9-3.1-1.2-4.3s-0.4-2.5-0.4-4c0-0.8 0.1-1.6 0.3-2.4 0.2-0.8 0.5-1.5 0.8-2 0.3-0.6 0.6-1.1 1-1.5 0.3-0.4 0.6-0.8 0.9-1 0.3-0.2 0.4-0.3 0.5-0.3 0.2 0 0.6 0.4 1.2 1.3 0.6 0.9 1.2 2 1.7 3.4 0.5 1.4 0.8 2.7 0.8 3.8 0 1.6-0.3 3-1 4.4s-1.7 2.9-3 4.5c0.6 1.9 1.1 3.5 1.6 5 1.7 0 3.2 0.6 4.3 1.8C21.6 52.7 22.2 54.1 22.2 55.7z"/>
    </g>
    <g class="chords fragment" data-fragment-index="3">
        <path fill="#d3d742" fill-role="evenodd" clip-rule="evenodd" d="M472.7 11.1c0.1 0 0.3 0 0.4 0 0.9 0 1.9 0.3 2.9 1 0.1 0.1 0.2 0.1 0.2 0.2 0.1 0 0.1 0.1 0.2 0.2 0.1 0.1 0.1 0.1 0.2 0.2 0.1 0.1 0.1 0.1 0.1 0.2 0 0.1 0 0.2 0 0.2 0 0.1 0 0.2-0.1 0.3 -0.1 0.3-0.2 0.5-0.4 0.6s-0.3 0.2-0.5 0.3c-0.1 0-0.3 0-0.4 0 -0.1 0-0.1 0-0.2 0 -0.2 0-0.4-0.1-0.7-0.1 -0.2-0.1-0.5-0.2-0.7-0.3s-0.5-0.2-0.7-0.3c-0.2-0.1-0.5-0.2-0.7-0.3 -0.2-0.1-0.5-0.1-0.7-0.1 -0.1 0-0.2 0-0.3 0 -0.1 0-0.2 0-0.3 0 -0.4 0.1-0.9 0.3-1.2 0.5s-0.7 0.6-0.9 0.9 -0.4 0.7-0.5 1.1c-0.1 0.4-0.2 0.9-0.2 1.3 0 0 0 0.1 0 0.1 0 0.4 0 0.8 0.1 1.2 0.1 0.4 0.2 0.8 0.4 1.2 0.2 0.4 0.5 0.8 0.9 1.1 0.4 0.3 0.9 0.6 1.4 0.9 0.5 0.3 1.1 0.4 1.6 0.4 0.6 0 1.2-0.2 1.8-0.5 0 0 0.1-0.1 0.2-0.1s0.2-0.1 0.3-0.2c0.1 0 0.2-0.1 0.3-0.1 0.1 0 0.2-0.1 0.3-0.1s0.2 0 0.3 0c0.1 0 0.2 0.1 0.2 0.2 0.1 0.2 0.2 0.4 0.2 0.6 0 0.2 0 0.3-0.1 0.5 -0.1 0.2-0.2 0.3-0.4 0.5 -0.2 0.2-0.3 0.3-0.5 0.4 -0.2 0.1-0.4 0.2-0.6 0.3 -0.2 0.1-0.4 0.2-0.6 0.3s-0.3 0.1-0.4 0.2c-0.5 0.2-1.1 0.3-1.6 0.3 0 0 0 0 0 0 0 0 0 0 0 0 -0.5 0-1-0.1-1.5-0.2 -0.5-0.2-1-0.4-1.4-0.7 -0.5-0.3-0.9-0.7-1.2-1.1 -0.3-0.4-0.6-0.9-0.9-1.4 -0.2-0.5-0.4-1-0.5-1.6 0-0.3-0.1-0.5-0.1-0.8 0-0.3 0-0.7 0.1-1 0.1-0.6 0.3-1.2 0.5-1.8 0.2-0.6 0.6-1.1 1-1.6 0.4-0.5 0.8-1 1.3-1.4 0.5-0.4 1-0.7 1.5-1C471.6 11.4 472.1 11.2 472.7 11.1z"/>
        <path fill="#d3d742" fill-role="evenodd" clip-rule="evenodd" d="M481.1 12.6c-0.3 0-0.6 0-1.1 0.1 -0.5 0.1-0.8 0.1-1.1 0.1 0 0-0.1 0-0.1 0 -0.3 0-0.6 0-0.8-0.1 -0.3-0.1-0.5-0.2-0.7-0.3 -0.3-0.2-0.4-0.4-0.4-0.5 0 0 0-0.1 0-0.1 0.1-0.4 0.1-0.7 0.1-0.9 0 0 0-0.1 0-0.1 0-0.1 0-0.1 0.1-0.1 0 0 0-0.1 0.1-0.1 0 0 0.1-0.1 0.1-0.1s0-0.1 0.1-0.1 0.1-0.1 0.1-0.1c0.1-0.1 0.3-0.1 0.4-0.1s0.3 0 0.5 0.1c0.1 0 0.3 0.1 0.5 0.2 0.3 0.1 0.4 0.1 0.4 0.1 0.3 0.1 0.6 0.1 1 0.1 0.6 0 1.3-0.1 2-0.2 0.1 0 0.2 0 0.3-0.1 0.2-0.1 0.3-0.1 0.4-0.1 0.1 0 0.2 0 0.2 0 0 0 0.1 0 0.1 0 0.1 0 0.2 0.1 0.3 0.2 0.1 0.1 0.1 0.3 0.1 0.4 0 0.1 0 0.3-0.1 0.4 -0.1 0.2-0.2 0.3-0.3 0.5s-0.2 0.3-0.4 0.5 -0.3 0.3-0.4 0.5 -0.2 0.3-0.3 0.4c-0.1 0.1-0.2 0.2-0.2 0.3 -0.2 0.4-0.4 0.7-0.6 1s-0.3 0.5-0.4 0.8 -0.2 0.6-0.2 0.9c0 0.2-0.1 0.5-0.1 0.9s0 0.8-0.1 1.1c0 0.3-0.1 0.6-0.3 0.9 -0.1 0.2-0.3 0.4-0.4 0.5 -0.2 0.1-0.3 0.2-0.4 0.2h0c-0.1 0-0.3-0.1-0.3-0.2 -0.1-0.1-0.1-0.4-0.1-0.6 0-1.1 0.2-2.1 0.6-3.2 0.1-0.4 0.4-0.9 0.6-1.5C480.8 13.4 481 12.9 481.1 12.6z"/>
        <path fill="#d3d742" fill-role="evenodd" clip-rule="evenodd" d="M347.5 12c0-0.1 0.1-0.3 0.2-0.5s0.3-0.4 0.4-0.6c0 0 0.1-0.1 0.2-0.3 0.1-0.1 0.2-0.2 0.3-0.3l0.1-0.2 6 0c0 0.4-0.1 0.8-0.4 1.1s-0.6 0.7-0.9 0.9c0 0-0.1 0.1-0.2 0.1 -0.1 0-0.2 0-0.3 0l-5 0c0 0 0 0 0 0C347.7 12.4 347.5 12.2 347.5 12zM342.9 4.7c0.1 0 0.1 0 0.2 0 0.2 0 0.4 0 0.6 0.1 0.3 0.1 0.7 0.2 1.1 0.3 0.4 0.1 0.7 0.3 1 0.5s0.5 0.4 0.7 0.7c0.1 0.1 0.1 0.2 0.1 0.3 0 0.1 0 0.3-0.1 0.5 -0.1 0.3-0.3 0.5-0.5 0.6 -0.2 0.1-0.3 0.2-0.5 0.2 -0.2 0-0.3 0-0.5 0 -0.2 0-0.4-0.1-0.5-0.2 -0.2-0.1-0.4-0.2-0.5-0.3s-0.4-0.2-0.6-0.3 -0.4-0.2-0.6-0.2c-0.2-0.1-0.5-0.1-0.7-0.1 -0.3 0-0.7 0-1.1 0.1 -0.6 0.2-1.2 0.4-1.7 0.8 -0.4 0.3-0.7 0.6-0.9 1.1 -0.2 0.4-0.4 0.9-0.5 1.4 0 0.3-0.1 0.7-0.1 1 0 0.2 0 0.4 0 0.5 0 0.5 0.1 1 0.3 1.5 0.2 0.5 0.4 0.9 0.7 1.2 0.3 0.3 0.6 0.6 1 0.9 0.4 0.2 0.8 0.4 1.2 0.5 0.2 0 0.4 0.1 0.7 0.1 0 0 0 0 0.1 0l0.6-0.1c0.5-0.1 0.9-0.3 1.2-0.5 0.1-0.1 0.2-0.2 0.3-0.3 0.1-0.1 0.2-0.2 0.2-0.3 0-0.1 0.1-0.2 0.2-0.3 0 0 0.1-0.1 0.1-0.2 0.1-0.1 0.1-0.2 0.2-0.3s0.1-0.2 0.2-0.3c0.1-0.1 0.1-0.3 0.1-0.4 0-0.1 0-0.2 0-0.3 0-0.1 0-0.2-0.1-0.3 -0.1-0.2-0.6-0.3-1.2-0.3 -0.1 0-0.3 0-0.5 0 0 0-0.1 0-0.1 0 -0.7 0-1.1 0-1.4-0.1 -0.3-0.1-0.4-0.2-0.4-0.5 0-0.1 0.1-0.3 0.2-0.5 0-0.1 0.1-0.1 0.2-0.2 0.2-0.2 0.5-0.4 1-0.6 0.5-0.1 1-0.2 1.5-0.2 0.1 0 0.2 0 0.4 0 0 0 0.1 0 0.1 0 0.4 0 0.7 0 1.1 0.1 0.5 0.1 0.9 0.2 1.1 0.4 0.4 0.3 0.6 0.7 0.6 1.2 0 0.5-0.2 1.2-0.6 2 -0.2 0.5-0.5 0.9-0.8 1.3s-0.5 0.7-0.9 1.1c-0.3 0.3-0.7 0.6-1 0.9 -0.4 0.2-0.8 0.4-1.2 0.6 -0.5 0.2-1 0.3-1.5 0.3 -0.2 0-0.3 0-0.5 0 -0.3 0-0.6 0-0.9-0.1 -0.4-0.1-0.8-0.2-1.2-0.4s-0.7-0.4-0.9-0.7 -0.5-0.6-0.7-1c-0.2-0.4-0.4-0.7-0.5-1.2 -0.1-0.4-0.2-0.8-0.3-1.2 0-0.4-0.1-0.8-0.1-1.2 0 0 0-0.1 0-0.1 0-0.4 0-0.9 0.1-1.3 0.1-0.7 0.3-1.3 0.6-1.9s0.7-1.1 1.1-1.6 0.9-0.9 1.4-1.2 1.1-0.6 1.7-0.9C341.7 4.9 342.3 4.8 342.9 4.7z"/>
        <path fill="#d3d742" fill-role="evenodd" clip-rule="evenodd" d="M354.8 18.2L354.6 8c0.1-0.1 0.3-0.1 0.5-0.1 0.2 0 0.3 0 0.5 0.1l-0.1 5.9c0.5-0.4 1-0.6 1.5-0.6 0.4 0 0.8 0.2 1.1 0.5 0.3 0.3 0.4 0.8 0.4 1.2 0 0.3-0.1 0.6-0.3 0.9 -0.2 0.3-0.4 0.5-0.6 0.7 -0.2 0.2-0.5 0.4-0.9 0.7 -0.4 0.3-0.6 0.5-0.8 0.6 -0.1 0-0.1 0.1-0.2 0.3 -0.1 0.1-0.2 0.2-0.3 0.3s-0.2 0.1-0.3 0.1c-0.1 0-0.2 0-0.3-0.1C354.8 18.4 354.8 18.3 354.8 18.2zM355.5 15.1l0 1.1v0.2c0 0.4 0 0.8 0.1 1.1 0.3-0.3 0.6-0.5 0.8-0.7 0.2-0.2 0.4-0.4 0.5-0.7 0.2-0.3 0.3-0.6 0.3-0.9 0-0.3-0.1-0.6-0.2-0.8 -0.1-0.2-0.3-0.3-0.5-0.3 -0.3 0-0.5 0.1-0.6 0.3S355.5 14.8 355.5 15.1z"/>
        <path fill="#d3d742" fill-role="evenodd" clip-rule="evenodd" d="M361 10.3C361 10.3 361 10.3 361 10.3c0.2 0 0.5-0.1 0.7-0.2 0.3-0.2 0.5-0.3 0.7-0.3 0.2 0 0.4-0.1 0.5-0.1 0.1 0 0.2 0 0.2 0.1 0 0 0 0 0 0.1 0 0 0.3 0.2 0.7 0.6 0.2 0.2 0.4 0.5 0.5 1 0.1 0.3 0.1 0.7 0.1 1.1 0 0.1 0 0.2 0 0.3 0 0.5-0.1 0.9-0.3 1.2 -0.2 0.5-0.5 1-0.9 1.5 -0.4 0.5-0.9 1-1.4 1.4 -0.5 0.4-1 0.7-1.5 0.8 -0.1 0-0.3 0-0.4 0 -0.4 0-0.7-0.1-1-0.4 -0.2-0.2-0.3-0.3-0.4-0.5 -0.1-0.1-0.1-0.2-0.1-0.4 0-0.1 0-0.1 0-0.2 0-0.2 0.1-0.3 0.1-0.4 0-0.1 0.1-0.2 0.2-0.4 0.2-0.2 0.3-0.3 0.4-0.4 0.1 0 0.2-0.1 0.3-0.1s0.3 0 0.5 0.1c0.2 0 0.4 0.1 0.6 0.1 0.2 0 0.3 0 0.5 0 0 0 0 0 0.1 0 0.2 0 0.4 0 0.4-0.1 0-0.1 0.1-0.2 0.2-0.4 0.3-0.4 0.4-0.7 0.4-1 0 0 0-0.1 0-0.1 0-0.2 0-0.4 0-0.6 0-0.1 0-0.3 0-0.4 0-0.1-0.1-0.2-0.2-0.3 -0.1-0.1-0.2-0.1-0.3-0.2 -0.1 0-0.2 0-0.3 0 -0.1 0-0.2 0-0.3 0 -0.1 0-0.2 0.1-0.3 0.1s-0.2 0.1-0.3 0.2c-0.2 0.1-0.3 0.2-0.3 0.2 -0.2 0.1-0.2 0.2-0.3 0.2 -0.1 0-0.1 0-0.2 0 -0.3 0-0.6-0.1-0.7-0.4 -0.1-0.2-0.2-0.4-0.2-0.6 -0.1-0.4-0.1-0.7-0.1-0.9 0-0.1 0-0.2 0-0.2 0-0.1 0-0.2 0-0.4 0-0.3 0-0.8 0-1.4 0-0.3 0-0.5 0-0.8 0-0.6 0-1.1 0.1-1.5 0-0.1 0.4-0.3 1.3-0.5 0.8-0.2 1.3-0.3 1.3-0.3 0.4 0 0.7-0.1 0.9-0.2 0.2-0.1 0.5-0.2 0.8-0.3 0 0 0.3 0 0.7 0 0.1 0 0.2 0 0.2 0 0 0 0 0 0 0 0.1 0 0.2 0 0.3 0.1 0.1 0.1 0.1 0.2 0.2 0.3s0 0.2 0 0.3c0 0.1-0.1 0.2-0.1 0.4 -0.1 0.2-0.2 0.3-0.2 0.3 -0.2 0-0.4 0-0.4 0.2 -0.1 0.2-0.3 0.3-0.5 0.4 -0.4 0.2-0.6 0.2-0.6 0.3 -0.2 0.1-0.4 0.2-0.7 0.2 -0.7 0.1-1.1 0.2-1.1 0.4 0 0.1 0 0.5 0.1 1.2C361 9.8 361 10.1 361 10.3 361 10.3 361 10.3 361 10.3z"/>
        <path fill="#d3d742" fill-role="evenodd" clip-rule="evenodd" d="M217.1 6.6c0.2 0 0.4 0 0.5 0 0.3 0 0.6 0 1 0.1 0.5 0.1 0.9 0.3 1.3 0.6s0.7 0.6 1 1c0.3 0.4 0.5 0.8 0.7 1.2 0.2 0.4 0.3 0.9 0.4 1.4 0.1 0.3 0.1 0.7 0.1 1 0 0.1 0 0.2 0 0.4 0 0.6-0.2 1.1-0.4 1.7 -0.2 0.6-0.5 1.2-0.8 1.7 -0.3 0.5-0.8 1.1-1.2 1.5s-1 0.9-1.5 1.3 -1.1 0.6-1.7 0.9 -1.2 0.3-1.8 0.4c0 0 0 0 0 0 -0.1 0-0.2 0-0.3 0 -0.1 0-0.1-0.1-0.2-0.2s-0.1-0.1-0.1-0.2c0-0.1 0-0.2 0-0.3s0-0.2 0-0.3c0 0 0-0.1 0-0.1 0-0.3 0-0.8 0.1-1.5 0-0.6 0.1-1 0.1-1.4 0-0.1 0-0.2 0-0.3 -0.1-1.9-0.1-3.8-0.1-5.7 0-0.1 0-0.3 0-0.5s0-0.4 0-0.5c0 0 0-0.1 0-0.1 0-0.1 0-0.2 0-0.3 0-0.2 0.1-0.3 0.1-0.5s0.2-0.3 0.3-0.4c0.1-0.1 0.2-0.2 0.4-0.3S215 7 215.2 7s0.3-0.1 0.5-0.1 0.4-0.1 0.5-0.1 0.3 0 0.5-0.1S217 6.6 217.1 6.6zM216.1 17.6c0.5 0 1.1-0.2 1.5-0.4 0.5-0.2 0.9-0.6 1.2-1 0.3-0.4 0.6-0.8 0.9-1.3s0.4-1 0.5-1.5c0-0.2 0-0.4 0-0.7 0-0.3 0-0.6-0.1-0.9 -0.1-0.5-0.3-1-0.6-1.5 -0.1-0.1-0.2-0.3-0.4-0.5s-0.4-0.4-0.7-0.6 -0.5-0.4-0.8-0.5c-0.3-0.1-0.6-0.2-0.8-0.3 -0.1 0-0.1 0-0.2 0 -0.2 0-0.4 0.1-0.5 0.2 -0.1 0.1-0.2 0.2-0.2 0.5 0 0.1 0 0.2 0 0.3 0 0.1 0 0.2 0 0.3 0 0.2 0.1 0.4 0.1 0.7s0.1 0.4 0.1 0.5c0 0.7 0.1 1.4 0.1 2.1s0 1.6 0 2.5C216.1 16.4 216.1 17.1 216.1 17.6z"/>
        <path fill="#d3d742" fill-role="evenodd" clip-rule="evenodd" d="M222.2 20.2L222 10c0.1-0.1 0.3-0.1 0.5-0.1 0.2 0 0.3 0 0.5 0.1l-0.1 5.9c0.5-0.4 1-0.6 1.5-0.6 0.4 0 0.8 0.2 1.1 0.5 0.3 0.3 0.4 0.8 0.4 1.2 0 0.3-0.1 0.6-0.3 0.9 -0.2 0.3-0.4 0.5-0.6 0.7 -0.2 0.2-0.5 0.4-0.9 0.7 -0.4 0.3-0.6 0.5-0.8 0.6 -0.1 0-0.1 0.1-0.2 0.3 -0.1 0.1-0.2 0.2-0.3 0.3 -0.1 0.1-0.2 0.1-0.3 0.1 -0.1 0-0.2 0-0.3-0.1C222.2 20.4 222.2 20.3 222.2 20.2zM222.9 17.1l0 1.1v0.2c0 0.4 0 0.8 0.1 1.1 0.3-0.3 0.6-0.5 0.8-0.7s0.4-0.4 0.5-0.7c0.2-0.3 0.3-0.6 0.3-0.9 0-0.3-0.1-0.6-0.2-0.8 -0.1-0.2-0.3-0.3-0.5-0.3 -0.3 0-0.5 0.1-0.6 0.3S222.9 16.8 222.9 17.1z"/>
        <path fill="#d3d742" fill-role="evenodd" clip-rule="evenodd" d="M230.5 10.7c-0.3 0.1-0.7 0.1-1.1 0.1 -0.3 0-0.6 0-0.9 0 -0.3 0-0.6 0-0.8 0 -0.2 0-0.3 0-0.3 0 -0.1 0-0.4-0.1-0.9-0.3 -0.4-0.1-0.6-0.3-0.6-0.5 0 0 0 0 0-0.1 0-0.2 0.1-0.4 0.1-0.5 0-0.2 0.1-0.5 0.2-0.6 0 0 0-0.1 0-0.2 0 0 0-0.1 0-0.1 0-0.1 0.1-0.1 0.1-0.2 0 0 0.1-0.1 0.1-0.1s0.1-0.1 0.1-0.1c0.1-0.1 0.3-0.2 0.4-0.2s0.3 0 0.5 0.1c0.1 0.1 0.3 0.1 0.5 0.2 0.2 0.1 0.4 0.2 0.4 0.2 0.3 0.1 0.6 0.1 1 0.1 0.7 0 1.4-0.1 2.1-0.3 0.1 0 0.2-0.1 0.3-0.1 0.2-0.1 0.3-0.1 0.4-0.2 0.1 0 0.2 0 0.3 0 0 0 0.1 0 0.1 0 0.1 0 0.2 0.1 0.3 0.2 0.1 0.2 0.1 0.3 0.1 0.5 0 0.1 0 0.3 0 0.4 0 0.1 0 0.2 0 0.2 0 0.2 0 0.4-0.1 0.6 -0.1 0.2-0.1 0.4-0.2 0.6s-0.1 0.5-0.3 0.7c-0.2 0.2-0.3 0.4-0.4 0.6 -0.1 0.2-0.2 0.3-0.2 0.4 -0.2 0.6-0.4 1-0.6 1.4 -0.1 0.4-0.3 0.8-0.4 1.1 -0.1 0.6-0.2 1-0.2 1.3 0 0.6 0 1 0 1l0 0.3c0 0.3 0 0.6 0 0.9 0 0.3-0.1 0.6-0.2 0.9 -0.1 0.3-0.3 0.5-0.4 0.7 -0.1 0.1-0.4 0.2-0.6 0.2 0 0 0 0-0.1 0 -0.3 0-0.5-0.1-0.6-0.3 -0.1-0.2-0.1-0.5-0.1-0.9 0-1.2 0.2-2.3 0.5-3.5 0.1-0.5 0.4-1.3 0.8-2.4C230.2 11.8 230.4 11.1 230.5 10.7z"/>
        <path fill="#d3d742" fill-role="evenodd" clip-rule="evenodd" d="M84.6 16.5c0-0.1 0.1-0.3 0.2-0.5 0.2-0.2 0.3-0.4 0.4-0.6 0 0 0.1-0.1 0.2-0.3s0.2-0.2 0.3-0.3l0.1-0.2 6 0c0 0.4-0.1 0.8-0.4 1.1 -0.3 0.3-0.6 0.7-0.9 0.9 0 0-0.1 0.1-0.2 0.1 -0.1 0-0.2 0-0.3 0l-5 0c0 0 0 0 0 0C84.7 16.8 84.6 16.7 84.6 16.5zM80.2 14.6C80.2 14.6 80.2 14.6 80.2 14.6c0.2 0 0.5 0 1 0.1 0.1 0 0.2 0 0.4 0s0.4 0 0.6 0c0.2 0.1 0.3 0.2 0.4 0.4 0.1 0.1 0.1 0.3 0.1 0.5 0 0 0 0.1 0 0.1 0 0.1 0 0.3-0.1 0.6 -0.1 0.3-0.2 0.4-0.3 0.5 -0.4 0.1-0.8 0.1-1.1 0.1 0 0-0.1 0-0.1 0 -0.7 0-1 0-1.1 0l-0.6 0c-0.2 0-0.3 0-0.3 0 0 0-0.1 0-0.3 0 -0.1 0-0.2 0-0.3 0s-0.2 0-0.3 0 -0.2 0-0.3 0.1c-0.1 0-0.2 0.1-0.2 0.2 -0.1 0.2-0.2 0.4-0.2 0.6 0 0.2 0 0.3 0 0.5 0 0.1 0 0.2 0 0.2 0 0.1 0 0.4 0.1 0.8 0 0.2 0 0.5 0.1 0.9 0 0.2 0 0.3 0 0.5 0 0.1 0 0.2 0 0.3 0 0.3-0.1 0.5-0.2 0.7 -0.1 0.2-0.2 0.4-0.4 0.5 -0.1 0.1-0.4 0.2-0.8 0.3 0 0-0.1 0-0.1 0 0 0-0.1 0-0.3-0.1 -0.2-0.1-0.3-0.2-0.3-0.5 0-0.3 0-0.6 0-0.8s0-0.3 0-0.3c0-0.1 0-0.2 0-0.3 0-0.2 0-0.4 0-0.7 0 0 0-0.1 0-0.3 0-0.3 0-0.8 0-1.6 0-0.8 0.1-1.4 0.1-1.9 0-0.8 0-2.2 0-4.3 0-0.1 0-0.2 0-0.3s0-0.3 0-0.4 0-0.2 0-0.4c0-0.2 0-0.3 0-0.4s0-0.2 0.1-0.3c0-0.1 0.1-0.2 0.1-0.3s0.1-0.1 0.2-0.2c0.1-0.1 0.2-0.1 0.3-0.1 0.3-0.1 0.7-0.1 1.1-0.1 0.1 0 0.2 0 0.2 0 0.3 0 0.6 0 0.9 0 0.3 0 0.7 0 1.2 0.1 0.4 0 0.8 0 1.1 0 0.2 0 0.4 0 0.8 0 0.3 0 0.6 0 0.8 0 0.1 0 0.1 0 0.2 0 0.3 0 0.6 0 0.8 0.1 0.2 0 0.3 0.2 0.4 0.4 0.1 0.2 0.1 0.3 0.1 0.5 0 0 0 0 0 0.1 0 0.2 0 0.4-0.1 0.6 -0.1 0.2-0.2 0.4-0.3 0.5 -0.1 0.1-0.2 0.1-0.3 0.1 -0.1 0-0.2 0-0.3 0 -0.1 0-0.2 0-0.3 0s-0.2 0-0.3 0c-0.1 0-0.2 0-0.3 0 -0.4 0-0.8 0-1.4 0 -0.7 0-1.3 0-1.6 0 -0.1 0-0.2 0-0.3 0s-0.3 0-0.4 0c-0.1 0-0.2 0-0.4 0s-0.2 0.1-0.3 0.1 -0.1 0.2-0.1 0.3c0 0.2 0 0.4-0.1 0.6 0 0.4 0 0.6 0 0.8 0 0 0 0.1 0 0.1 0 0.2 0 0.5 0.1 0.7 0 0.2 0.1 0.4 0.2 0.5 0.1 0.1 0.2 0.1 0.3 0.1 0.2 0 0.3 0.1 0.4 0.1 0.2 0 0.4 0 0.4 0C79.4 14.6 79.8 14.6 80.2 14.6z"/>
    </g>
    <g class="form fragment" data-fragment-index="4">
        <path fill="#d6504f" fill-role="evenodd" clip-rule="evenodd" d="M55.3 38.9c0.4 0 0.7-0.1 1.1-0.2l0.6-0.2c0.1 0 0.2 0 0.3 0.1 0.1 0.1 0.1 0.2 0 0.2l-6.4 7.5h3.8v-3c0-0.2 0.1-0.4 0.2-0.5 0.1-0.1 0.3-0.2 0.4-0.3 0.2-0.1 0.4-0.3 0.7-0.6 0.3-0.3 0.6-0.8 0.8-1.4 0-0.1 0.1-0.1 0.2-0.1 0.2 0 0.3 0.1 0.3 0.3v5.6h1.6c0.2 0 0.3 0.1 0.4 0.3 0 0.2-0.1 0.3-0.4 0.3h-1.6v0.2c0 0.6 0.1 1.1 0.4 1.5 0.3 0.4 0.7 0.6 1.2 0.6 0.2 0 0.3 0.1 0.3 0.3 0 0.2-0.1 0.3-0.3 0.3 -0.3 0-0.8 0-1.5-0.1s-1.1-0.1-1.5-0.1c-0.3 0-0.8 0-1.5 0.1 -0.7 0.1-1.2 0.1-1.5 0.1 -0.2 0-0.3-0.1-0.3-0.3 0-0.2 0.1-0.3 0.3-0.3 0.5 0 0.9-0.2 1.2-0.6s0.5-0.9 0.5-1.5v-0.2h-3.8c-0.2 0-0.4-0.1-0.5-0.2 -0.1-0.1-0.2-0.2-0.2-0.4 0 0 0.1-0.2 0.3-0.5 0.2-0.3 0.5-0.6 0.8-1.1 0.3-0.5 0.6-1 0.9-1.6 0.3-0.6 0.6-1.3 0.8-2.1s0.3-1.6 0.3-2.4c0-0.2 0.1-0.4 0.3-0.4 0 0 0.1 0 0.3 0.1 0.2 0 0.4 0.1 0.6 0.1C54.8 38.9 55 38.9 55.3 38.9z"/>
        <path fill="#d6504f" fill-role="evenodd" clip-rule="evenodd" d="M55.3 50.2c0.4 0 0.7-0.1 1.1-0.2l0.6-0.2c0.1 0 0.2 0 0.3 0.1 0.1 0.1 0.1 0.2 0 0.2l-6.4 7.5h3.8v-3c0-0.2 0.1-0.4 0.2-0.5s0.3-0.2 0.4-0.3c0.2-0.1 0.4-0.3 0.7-0.6 0.3-0.3 0.6-0.8 0.8-1.4 0-0.1 0.1-0.1 0.2-0.1 0.2 0 0.3 0.1 0.3 0.3v5.6h1.6c0.2 0 0.3 0.1 0.4 0.3 0 0.2-0.1 0.3-0.4 0.3h-1.6v0.2c0 0.6 0.1 1.1 0.4 1.5 0.3 0.4 0.7 0.6 1.2 0.6 0.2 0 0.3 0.1 0.3 0.3 0 0.2-0.1 0.3-0.3 0.3 -0.3 0-0.8 0-1.5-0.1C56.8 61 56.3 61 55.9 61c-0.3 0-0.8 0-1.5 0.1 -0.7 0.1-1.2 0.1-1.5 0.1 -0.2 0-0.3-0.1-0.3-0.3 0-0.2 0.1-0.3 0.3-0.3 0.5 0 0.9-0.2 1.2-0.6s0.5-0.9 0.5-1.5v-0.2h-3.8c-0.2 0-0.4-0.1-0.5-0.2 -0.1-0.1-0.2-0.2-0.2-0.4 0 0 0.1-0.2 0.3-0.5 0.2-0.3 0.5-0.6 0.8-1.1 0.3-0.5 0.6-1 0.9-1.6 0.3-0.6 0.6-1.3 0.8-2.1s0.3-1.6 0.3-2.4c0-0.2 0.1-0.4 0.3-0.4 0 0 0.1 0 0.3 0.1 0.2 0 0.4 0.1 0.6 0.1C54.8 50.2 55 50.2 55.3 50.2z"/>
        <line fill="none" stroke="#d6504f" stroke-width="0.9071" stroke-linejoin="bevel" stroke-miterlimit="10" x1="558.6" y1="38.6" x2="558.6" y2="61.3"/>
        <line fill="none" stroke="#d6504f" stroke-width="0.9071" stroke-linejoin="bevel" stroke-miterlimit="10" x1="456.3" y1="38.6" x2="456.3" y2="61.3"/>
        <line fill="none" stroke="#d6504f" stroke-width="0.9071" stroke-linejoin="bevel" stroke-miterlimit="10" x1="329.7" y1="38.6" x2="329.7" y2="61.3"/>
        <line fill="none" stroke="#d6504f" stroke-width="0.9071" stroke-linejoin="bevel" stroke-miterlimit="10" x1="202.9" y1="38.6" x2="202.9" y2="61.3"/>
        <path fill="#d6504f" fill-role="evenodd" clip-rule="evenodd" d="M67.4 48c-0.3-0.2-0.4-0.5-0.4-0.9 0-0.4 0.1-0.7 0.4-0.9s0.5-0.4 0.9-0.4c0.3 0 0.6 0.1 0.9 0.4 0.3 0.2 0.4 0.5 0.4 0.9 0 0.4-0.1 0.7-0.4 0.9 -0.3 0.2-0.5 0.4-0.9 0.4C67.9 48.4 67.6 48.2 67.4 48z"/>
        <path fill="#d6504f" fill-role="evenodd" clip-rule="evenodd" d="M67.4 53.7c-0.3-0.2-0.4-0.5-0.4-0.9 0-0.4 0.1-0.7 0.4-0.9 0.3-0.2 0.5-0.4 0.9-0.4 0.3 0 0.6 0.1 0.9 0.4 0.3 0.2 0.4 0.5 0.4 0.9 0 0.4-0.1 0.7-0.4 0.9 -0.3 0.2-0.5 0.4-0.9 0.4C67.9 54 67.6 53.9 67.4 53.7z"/>
        <line fill="none" stroke="#d6504f" stroke-width="0.9071" stroke-linejoin="bevel" stroke-miterlimit="10" x1="64.9" y1="38.6" x2="64.9" y2="61.3"/>
        <line fill="none" stroke="#d6504f" stroke-width="1.7008" stroke-linejoin="bevel" stroke-miterlimit="10" x1="61.9" y1="38.6" x2="61.9" y2="61.3"/>
        <path fill="#d6504f" fill-role="evenodd" clip-rule="evenodd" d="M71.2 31c0.2 0 0.4 0.1 0.4 0.4 0 0.1 0 0.1-0.1 0.2 -0.2 0.3-0.6 0.8-1.1 1.7 -0.6 0.9-1 1.5-1.3 1.9s-0.7 1-1.3 1.7c-0.6 0.7-1.1 1.2-1.6 1.6 -0.5 0.4-1 0.7-1.6 1 -0.6 0.3-1.2 0.4-1.9 0.4H61v-2c0-0.2 0.1-0.3 0.2-0.4 0.1-0.1 0.2-0.2 0.4-0.2h1.1c0.9 0 1.7-0.2 2.5-0.5 0.8-0.3 1.5-0.8 2.2-1.5s1.3-1.3 1.8-1.9c0.5-0.6 1.1-1.4 1.6-2.3C71 31.1 71.1 31 71.2 31z"/>
        <path fill="#d6504f" fill-role="evenodd" clip-rule="evenodd" d="M71.6 68.5c0 0.1 0 0.2-0.1 0.2 -0.1 0.1-0.2 0.1-0.3 0.1 -0.1 0-0.2-0.1-0.3-0.2 -0.6-0.9-1.1-1.6-1.7-2.3s-1.1-1.3-1.8-1.9S66 63.4 65.2 63c-0.8-0.3-1.6-0.5-2.5-0.5h-1.1c-0.2 0-0.3-0.1-0.4-0.2C61.1 62.3 61 62.1 61 62v-2h1.7c0.6 0 1.3 0.1 1.9 0.4 0.6 0.3 1.2 0.6 1.6 1 0.5 0.4 1 0.9 1.6 1.6 0.6 0.7 1 1.3 1.3 1.7s0.7 1.1 1.3 1.9c0.6 0.9 0.9 1.4 1.1 1.7C71.6 68.3 71.6 68.4 71.6 68.5z"/>
    </g>
</svg>
