<svg xmlns="http://www.w3.org/2000/svg" xmlns:xlink="http://www.w3.org/1999/xlink" version="1.1" id="Layer_1" x="0" y="0" viewBox="0 0 333 117" enable-background="new 0 0 333 117" xml:space="preserve">
  <path fill="#FF7900" d="M81.9 72.8H79l-8.9 2.8c0.2-0.1 0.4-0.2 0.6-0.3l27.2-15.7c-1.6-2.8-5.2-3.8-8-2.2L85 60.2 78.7 67c0.1-0.2 0.3-0.4 0.4-0.7L96 37c-2.8-1.6-6.4-0.7-8 2.1l-4.1 7.1 -2 9.1c0 0 0-0.1 0-0.1 0-0.1 0-0.2 0-0.2V18c-3.2 0-5.9 2.6-5.9 5.9l0 10.8 2.8 8.9c-0.1-0.2-0.2-0.4-0.3-0.6L58.9 9c-2.8 1.6-3.8 5.2-2.1 8l6.7 11.6 6.9 6.3c0 0 0 0-0.1 0 0 0 0 0 0 0L33.5 13.7c-1.6 2.8-0.7 6.4 2.1 8l13.8 8 9.1 2c0 0 0 0 0 0 0 0-0.1 0-0.1 0h-45c0 3.2 2.6 5.9 5.9 5.9h18.6l8.9-2.8c0 0-0.1 0-0.1 0.1L5.5 58.7c1.6 2.8 5.2 3.8 8 2.2l18.4-10.6 6.3-6.9c0 0-0.1 0.1-0.1 0.1L13 86.9c2.8 1.6 6.4 0.7 8-2.1l11.9-20.6L35 55c0 0 0 0.1 0 0.1l0 52.8c3.2 0 5.9-2.6 5.9-5.9V55.2h0c0-9.7 7.9-17.6 17.6-17.6 6.4 0 11.9 3.4 15 8.4l0.5 0.8c1.3 2.4 2.1 5.2 2.1 8.1l0 0.5c0 2.9-0.8 5.7-2.1 8.1l-0.5 0.9c-1.5 2.4-3.4 4.3-5.8 5.8l-0.8 0.5c-2.5 1.3-5.3 2.1-8.2 2.1h-6c0 3.2 2.6 5.9 5.9 5.9h0v0c0 0 0.1 0 0.1 0h29.2C87.8 75.4 85.1 72.8 81.9 72.8z"/>
  <path fill="#282F36" d="M180.4 48.4c-1.2-1.4-2.7-2.5-4.6-3.2 -1.9-0.8-4.3-1.1-7.2-1.1 -1.2 0-2.4 0.1-3.6 0.3 -1 0.2-2 0.4-2.8 0.7V30.9c0-0.1 0-0.2-0.1-0.2 -0.1 0-0.1-0.1-0.2-0.1l-8.2 1.3c-0.1 0-0.2 0.1-0.2 0.3v46.4c0 0.2 0.1 0.3 0.3 0.3h8.2c0.2 0 0.3-0.1 0.3-0.3V52.1c0.5-0.2 1.3-0.3 2.3-0.5 1.1-0.2 2.2-0.3 3.3-0.3 1.4 0 2.5 0.2 3.4 0.5 0.9 0.3 1.6 0.9 2.1 1.6 0.5 0.8 0.9 1.8 1.2 3 0.2 1.2 0.4 2.8 0.4 4.5v17.7c0 0.2 0.1 0.3 0.3 0.3h8.2c0.2 0 0.3-0.1 0.3-0.3V59.7c0-2.3-0.2-4.5-0.7-6.4C182.4 51.5 181.5 49.8 180.4 48.4z"/>
  <path fill="#282F36" d="M215.6 47.7c-1.1-1.2-2.7-2.1-4.5-2.8 -1.9-0.6-4.2-1-6.9-1 -2.4 0-4.7 0.2-6.8 0.6 -2.2 0.4-3.7 0.7-4.9 1.1 -0.1 0-0.2 0.2-0.2 0.3l1 6.3c0 0.1 0.1 0.1 0.1 0.2 0.1 0 0.1 0.1 0.2 0 1.1-0.4 2.4-0.7 4.1-1 1.7-0.3 3.6-0.4 5.6-0.4 1.4 0 2.5 0.2 3.4 0.5 0.9 0.3 1.6 0.8 2.1 1.4 0.5 0.6 0.9 1.3 1.1 2 0.2 0.8 0.3 1.6 0.3 2.5v0.9c-1-0.2-2-0.4-2.9-0.5 -1-0.1-2-0.2-2.9-0.2 -1.9 0-3.8 0.2-5.6 0.6 -1.8 0.4-3.4 1-4.8 1.8 -1.4 0.9-2.5 2-3.3 3.3 -0.8 1.4-1.2 3.1-1.2 5 0 2.1 0.4 3.8 1.1 5.2 0.7 1.4 1.7 2.6 3 3.4 1.3 0.9 2.8 1.5 4.6 1.9 1.8 0.4 3.7 0.6 5.9 0.6 3.2 0 6.1-0.2 8.6-0.5 2.5-0.4 4.5-0.7 5.7-0.9 0.1 0 0.2-0.1 0.2-0.3V57.5c0-2-0.2-3.8-0.7-5.5C217.5 50.3 216.7 48.8 215.6 47.7zM204.8 72.9c-2 0-3.6-0.3-4.8-1 -1.1-0.7-1.7-1.8-1.7-3.6 0-0.9 0.2-1.6 0.6-2.2 0.4-0.6 1-1 1.7-1.4 0.7-0.3 1.5-0.6 2.4-0.7 0.9-0.1 1.8-0.2 2.7-0.2 1 0 2 0.1 2.8 0.2 0.7 0.1 1.3 0.2 1.7 0.3v8.2C209 72.8 207.2 72.9 204.8 72.9z"/>
  <path fill="#282F36" d="M248.7 62.8c-0.9-0.8-2-1.6-3.4-2.3 -1.4-0.7-3-1.4-5-2 -1.2-0.4-2.2-0.8-2.9-1.1 -0.8-0.4-1.4-0.7-1.9-1.1 -0.5-0.3-0.8-0.7-1-1.1 -0.2-0.4-0.3-0.8-0.3-1.4 0-1 0.5-1.7 1.4-2.2 1-0.5 2.3-0.8 3.9-0.8 1.8 0 3.4 0.2 4.8 0.5 1.4 0.3 2.5 0.7 3.4 1 0.1 0 0.2 0 0.2 0 0.1 0 0.1-0.1 0.1-0.2l1.5-6.3c0-0.1 0-0.3-0.2-0.3 -1-0.3-2.4-0.7-4.3-1.1 -1.9-0.4-3.9-0.6-6-0.6 -4.1 0-7.5 0.9-9.9 2.7 -2.4 1.8-3.7 4.4-3.7 7.5 0 1.6 0.3 3 0.8 4.1 0.5 1.1 1.3 2.1 2.2 2.9 0.9 0.8 2 1.5 3.3 2.1 1.2 0.6 2.6 1.1 4.1 1.7 2.4 0.8 4.1 1.6 5.2 2.3 1 0.7 1.5 1.5 1.5 2.5 0 1.1-0.4 1.9-1.3 2.3 -0.9 0.5-2.5 0.7-4.6 0.7 -2.1 0-4-0.2-5.7-0.6 -1.7-0.4-3.1-0.9-4.3-1.3 -0.1 0-0.2 0-0.2 0 -0.1 0-0.1 0.1-0.1 0.2l-1.4 6.5c0 0.1 0 0.3 0.2 0.3 0.8 0.3 2.1 0.7 4 1.2 1.9 0.5 4.4 0.8 7.6 0.8 4.7 0 8.3-0.9 10.9-2.5 2.6-1.7 3.9-4.2 3.9-7.5 0-1.5-0.2-2.9-0.6-4C250.2 64.7 249.6 63.7 248.7 62.8z"/>
  <path fill="#282F36" d="M272.4 43.9c-2.1 0-4.2 0.4-6.2 1.1 -2 0.8-3.8 1.9-5.4 3.4 -1.6 1.5-2.8 3.4-3.7 5.7 -0.9 2.3-1.4 4.9-1.4 7.9 0 2.5 0.4 4.9 1.1 7.1 0.7 2.2 1.9 4 3.4 5.6 1.5 1.6 3.5 2.8 5.8 3.7 2.3 0.9 5.1 1.3 8.2 1.3 1.2 0 2.4-0.1 3.6-0.2 1.2-0.1 2.3-0.3 3.3-0.5 1-0.2 1.9-0.4 2.7-0.7 0.8-0.2 1.4-0.5 1.9-0.7 0.1-0.1 0.2-0.2 0.1-0.3l-1.1-6.4c0-0.1-0.1-0.2-0.1-0.2 -0.1 0-0.2 0-0.2 0 -0.9 0.4-2.2 0.7-3.8 1.1 -1.6 0.3-3.4 0.5-5.4 0.5 -3.3 0-5.8-0.7-7.6-2.2 -1.6-1.4-2.6-3.3-2.9-5.8h23c0.1 0 0.3-0.1 0.3-0.2 0-0.4 0.1-0.9 0.1-1.5 0-0.5 0-1 0-1.5 0-5.7-1.4-10.1-4.2-13C281.2 45.4 277.3 43.9 272.4 43.9zM264.8 58.3c0.1-0.9 0.4-1.7 0.7-2.5 0.3-0.9 0.8-1.7 1.5-2.4 0.6-0.7 1.4-1.3 2.3-1.7 0.9-0.4 2-0.7 3.2-0.7 1.2 0 2.2 0.2 3 0.6 0.8 0.4 1.6 0.9 2.1 1.6 0.6 0.7 1 1.5 1.3 2.4 0.3 0.9 0.4 1.8 0.5 2.7H264.8z"/>
  <path fill="#282F36" d="M323.7 71.8h-20.5c0.1-0.5 0.4-1 0.8-1.7 0.6-0.8 1.3-1.7 2.1-2.6 0.8-0.9 1.7-1.8 2.6-2.7 0.9-0.9 1.7-1.7 2.4-2.3 1.4-1.2 2.7-2.5 4.1-3.8 1.4-1.3 2.6-2.7 3.6-4.1 1.1-1.4 1.9-2.9 2.6-4.4 0.7-1.5 1-3.1 1-4.6 0-4-1.2-7.1-3.6-9.4 -2.4-2.3-6.2-3.5-11.2-3.5 -2.9 0-5.7 0.5-8.3 1.6 -2.6 1.1-4.8 2.5-6.7 4.2 -0.1 0.1-0.1 0.3 0 0.4l4.1 5.5c0 0.1 0.1 0.1 0.2 0.1 0.1 0 0.2 0 0.2-0.1 0.3-0.3 0.8-0.7 1.4-1.2 0.6-0.5 1.3-1 2.2-1.4 0.8-0.5 1.8-0.9 2.8-1.2 1.1-0.3 2.2-0.5 3.4-0.5 1.9 0 3.5 0.5 4.8 1.4 1.3 0.9 1.9 2.4 1.9 4.5 0 1-0.2 1.9-0.7 2.9 -0.4 0.9-1 1.9-1.8 2.8 -0.7 0.9-1.6 1.8-2.6 2.8 -1 1-2 1.9-3.1 2.9 -1.4 1.3-2.8 2.6-4.2 3.9 -1.4 1.3-2.7 2.8-3.8 4.3 -1.1 1.5-2.1 3.2-2.8 4.9 -0.7 1.8-1.1 3.7-1.1 5.8v1.1c0 0.5 0 0.9 0.1 1.3 0 0.1 0.1 0.2 0.3 0.2h29.8c0.2 0 0.3-0.1 0.3-0.3v-6.6C324 71.9 323.9 71.8 323.7 71.8z"/>
  <path fill="#282F36" d="M141.8 37.1c-3.7-2.5-9-3.7-15.8-3.7 -2 0-4.2 0.1-6.7 0.2 -2.4 0.2-4.6 0.4-6.6 0.9 -0.1 0-0.2 0.1-0.2 0.3v43.9c0 0.2 0.1 0.3 0.3 0.3h8.5c0.2 0 0.3-0.1 0.3-0.3v-14h4c3.4 0 6.5-0.3 9.2-0.9 2.7-0.6 5-1.5 6.8-2.8 1.9-1.3 3.3-2.9 4.3-4.9 1-2 1.5-4.4 1.5-7.2C147.4 43.6 145.5 39.6 141.8 37.1zM137.9 48.9c0 3.2-1.1 5.4-3.2 6.5 -2.2 1.2-5.3 1.8-9.3 1.8h-3.8v-16c1.3-0.1 3-0.2 5.1-0.2 1.6 0 3.1 0.1 4.5 0.4 1.4 0.3 2.6 0.7 3.6 1.3 1 0.6 1.8 1.4 2.3 2.4C137.6 46 137.9 47.3 137.9 48.9z"/>
</svg>
