<svg xmlns="http://www.w3.org/2000/svg" xmlns:xlink="http://www.w3.org/1999/xlink" version="1.1" x="0px" y="0px" viewBox="0 0 960 700" enable-background="new 0 0 960 700" xml:space="preserve" id="sonny-rollins-four">
  <g id="four">
    <path fill="#EF0D0B" d="M280.8 614.2c12.8 1.1 25.6 0 38.2-1.4 14-1.5 28.3-0.3 42.2-1.7 51.7-5 103.5-1 155.2-2.8 11.2-0.4 22.3-1.4 33.4-2.3 20-1.6 39.4 3.1 59.2 2.8 7.7-0.1 15.3-0.1 23-0.1 10.9 0.3 21.8 0.6 32.7 0.9 54.4 1.5 108.5 6.7 162.9 8 18.6 0.4 37.1 1.8 55.6 2.7 1.6 3 5.2 2.3 8.3 2.3 16.4 0.1 32.8 0.2 49.1 0.3 7.7 0 15.5 0.1 23.2 0.1 0 23.7-0.2 47.4 0.2 71.1 0.1 4.9-1.3 5.8-7.9 5.8 -312.6-0.2-625.3-0.1-937.9-0.1 -4.8 0-9.6 0-14.5 0 -0.1-22.5 0-44.9-0.4-67.4 -0.1-5.4 2.9-7.1 9.7-6.9 4.4 0.1 9.1 0.6 12.7-2.2 2.2-0.1 4.5-0.3 6.7-0.4 45.1-1.3 90.2-2.3 135.3-3.9C205.5 617.8 243.1 615.9 280.8 614.2z"/>
  </g>
  <g id="three">
    <path fill="#8D1A2C" d="M916.5 406.4c-10.1 1.8-21.3-0.4-32.2 0 -78.9 3.2-157.9 2.6-236.8-0.9 -14.8-0.6-29.7 0.6-44.4-0.5 -76.9-5.8-154-4.9-231-3.5 -70.9 1.3-141.5 5.6-211.7 13.6 -36.9 4.3-74 7.7-111 11.6 -16.5 1.8-32.9 3.8-49.3 5.7v182c73.7-2.7 147.5-2.7 221.3-3.3 29.2-0.2 58.4-0.8 87.6-1.2 3.2 0 6.3 0 9.5 0.4 -12.2 3.5-25.3 1.6-37.6 3.7 12.8 1.1 25.6 0 38.2-1.4 14-1.5 28.3-0.3 42.2-1.7 51.7-5 103.5-1 155.2-2.8 11.2-0.4 22.3-1.4 33.4-2.3 20-1.6 39.4 3.1 59.2 2.8 7.7-0.1 15.3-0.1 23-0.1 -1.5-1.8-6.1-0.2-6.5-4.1 112.7-4.1 225.6-2.9 338.3-2.9V402.7C948.3 404.8 932.3 403.6 916.5 406.4z"/>
  </g>
  <g id="two">
    <path fill="#EF0D0B" d="M956.6 182.7c0-3.2-1.8-4.1-5.6-4.2 -21.6-0.6-43.2-1.3-64.8-2 -35.8-0.1-71.7-0.1-107.5-0.5 -6.6-0.1-13.2-1.4-19.8-2.2 -6.3-0.1-12.6-0.1-18.9-0.2 -89.6 0.9-179.3-2.3-268.9 3.9 -28.4 2-57.4-0.6-86.2-1.1 -2.7 1.7-6 1.3-9.2 1.4 -23 0.4-45.9 0.7-68.9 1.4 -60.9 1.8-121.9 3.8-182.8 5.9 -36.2 1.3-72.4 3-108.6 4.3 -6.4 0.2-8 1.8-7.3 6.4 5.2 31.2 10.7 62.4 15.7 93.7 5.3 32.8 10.5 65.7 14.4 98.6 0.6 5.1 2.3 6.6 9.5 6.6 54.6-0.2 109.1-0.5 163.7-0.1 124.2 0.8 248.5 0.6 372.8 0.5 23.1 0 46.2 0.7 69.2-1.1h-64.2c0-0.4 0-0.9 0-1.3 29.2 0 58.3 0 87.5 0 86.7 0 173.4-0.1 260.1-0.1 14 0 13.4 0 14.4-10.2 2.2-22.7 1.2-45.4 0.6-68.1 -0.2-9.7 1.1-19.1 2.5-28.7v15.5C957.2 261.7 956 222.2 956.6 182.7z"/>
  </g>
  <g id="one">
    <path fill="#8D1A2C" d="M939.5 0.2c-52.8 3-105.8 4.3-158.7 5.2 -123 2.2-246 2.5-369 2.8 -80.9 0.2-161.8 2.1-242.7 3.2 -20.9 0.3-41.7 0.7-62.6 0.1 -33.9-1-67.8-2.8-101.7-4.2C3.2 7.2 1.6 7.3 0 7.4v95.3c4.1 1.1 3.8 3.6 3.9 6.2 0.6 16.3 1.5 32.6 1.8 48.9 0.1 5.2 1.8 7.5 9.7 7.4 46.5-0.8 93 0.6 139.4 2 29.7 0.9 59.4 1.5 89 3.5 33.3 2.3 66.9 2.3 100.3 3.8 13.6 0.6 27.3-0.3 40.7 2.1 28.7 0.5 57.7 3.1 86.2 1.1 89.6-6.2 179.3-3 268.9-3.9 -30.4-1.6-60.9-1.1-91.4-1.5 -17-0.2-34 0-52.1 0 23.7-3.4 46.7-2 69.2-4.9 5-0.6 10.2-0.9 15.3-0.9 20.9 0.1 41.7-0.9 62.3-2.9 26.3-2.6 52.8-3.1 79.2-4.1 39.1-1.5 78.3-2.5 117.4-3.5 5.4-0.1 7-1.2 7-5.2 0-48.8 0.2-97.6 0.6-146.4C947.5-1.1 943.5 0 939.5 0.2z"/>
  </g>
</svg>
