<svg xmlns="http://www.w3.org/2000/svg" xmlns:xlink="http://www.w3.org/1999/xlink" version="1.1" id="Calque_1" x="0px" y="0px" width="94px" height="72px" viewBox="0 0 94 72" enable-background="new 0 0 94 72" xml:space="preserve">
<path d="M84.122,5.329H9.623c-2.447,0-4.438,1.991-4.438,4.438v45.587c0,2.447,1.991,4.439,4.438,4.439h29.625l-1.889,6.258h-0.88  c-0.189,0-0.344,0.207-0.344,0.463s0.154,0.463,0.344,0.463h20.786c0.189,0,0.344-0.207,0.344-0.463s-0.154-0.463-0.344-0.463h-0.88  l-1.889-6.258h29.625c2.447,0,4.438-1.992,4.438-4.439V9.768C88.561,7.32,86.569,5.329,84.122,5.329z M85.405,47.944H8.34V8.64  h77.065V47.944z"/>
</svg>