<svg xmlns="http://www.w3.org/2000/svg" xmlns:xlink="http://www.w3.org/1999/xlink" version="1.1" id="Capa_27" x="0px" y="0px" width="100px" height="100px" viewBox="0 0 100 100" enable-background="new 0 0 100 100" xml:space="preserve">
<g>
	<path d="M50.002,45.766c-2.393,0-4.328,1.898-4.328,4.234c0,2.333,1.936,4.232,4.328,4.232c2.383,0,4.323-1.898,4.323-4.232   C54.325,47.665,52.385,45.766,50.002,45.766z M50.002,52.899c-1.643,0-2.968-1.299-2.968-2.899c0-1.604,1.325-2.899,2.968-2.899   c1.634,0,2.964,1.296,2.964,2.899C52.966,51.601,51.636,52.899,50.002,52.899z"/>
	<path d="M50.002,1.089C22.385,1.089,0,22.988,0,50c0,27.013,22.385,48.91,50.002,48.91C77.613,98.91,100,77.014,100,50   C100,22.988,77.613,1.089,50.002,1.089z M32.191,50c0-9.621,7.975-17.416,17.811-17.416c9.832,0,17.802,7.795,17.802,17.416   c0,9.617-7.97,17.417-17.802,17.417C40.166,67.417,32.191,59.617,32.191,50z M58.311,70.971c5.618-1.789,10.18-5.89,12.492-11.155   l0.924,0.426c-2.426,5.503-7.183,9.789-13.048,11.676L58.311,70.971z M60.113,75.58c6.763-2.371,12.253-7.338,15.217-13.682   l0.94,0.432c-3.073,6.582-8.771,11.755-15.776,14.222L60.113,75.58z M61.927,80.219c7.911-2.939,14.359-8.796,17.962-16.226   l0.924,0.426C77.101,72.085,70.454,78.13,62.3,81.165L61.927,80.219z M63.729,84.826c9.061-3.497,16.465-10.231,20.697-18.748   l0.926,0.426c-4.344,8.754-11.947,15.676-21.252,19.269L63.729,84.826z M65.901,90.377l-0.368-0.944   c10.21-4.05,18.562-11.669,23.422-21.274l0.926,0.426C84.909,78.426,76.359,86.232,65.901,90.377z"/>
</g>
</svg>